<?xml version="1.0" encoding="UTF-8"?>
<svg xmlns="http://www.w3.org/2000/svg" version="1.1" width="1732" height="1732" style="background-color:transparent;">
  <path d="M0 0 C571.56 0 1143.12 0 1732 0 C1732 571.56 1732 1143.12 1732 1732 C1160.44 1732 588.88 1732 0 1732 C0 1160.44 0 588.88 0 0 Z " fill="#FDFDFE" transform="translate(0,0)"/>
  <path d="M0 0 C2.21602226 -0.00216502 4.43152778 -0.02030588 6.64746094 -0.03930664 C16.50900074 -0.07800222 25.99253949 0.72916016 35.74902344 2.18530273 C36.40896301 2.28083939 37.06890259 2.37637604 37.74884033 2.47480774 C68.80836285 6.99534504 98.97247398 21.97895987 122.58496094 42.44311523 C124.57876593 44.04823622 126.41774583 45.15272772 128.74902344 46.18530273 C129.60560547 45.36739258 129.60560547 45.36739258 130.47949219 44.53295898 C141.1534972 34.60562523 153.00520803 27.10540809 165.74902344 20.18530273 C167.30943359 19.30745117 167.30943359 19.30745117 168.90136719 18.41186523 C193.50140062 5.23221096 221.21460495 -0.04695025 248.87402344 -0.00219727 C249.90881332 -0.00129089 249.90881332 -0.00129089 250.96450806 -0.00036621 C261.05651972 0.02363904 270.79715908 0.37110618 280.74902344 2.18530273 C282.26586335 2.42154019 283.78279637 2.65718038 285.29980469 2.89233398 C313.29571066 7.54244444 340.76517363 20.29642055 362.74902344 38.18530273 C363.58651123 38.85577637 363.58651123 38.85577637 364.44091797 39.53979492 C400.80569842 68.77897295 425.92294275 110.52092208 431.97070312 157.10571289 C435.43344995 189.35184233 433.46946287 224.74442387 418.74902344 254.18530273 C417.98518152 254.1858475 417.22133961 254.18639227 416.43435097 254.18695354 C397.82091694 254.20194169 379.20773061 254.24447064 360.59443092 254.3173933 C351.59303725 254.35199935 342.59179601 254.37739306 333.59033203 254.38085938 C325.741713 254.38390538 317.89336577 254.40448119 310.04485166 254.44582731 C305.89169493 254.46710146 301.73892406 254.47978685 297.58571243 254.47145653 C293.67027316 254.4638807 289.75561343 254.47988072 285.84031677 254.51336288 C284.40936454 254.52155395 282.97833415 254.52139621 281.54738998 254.51189995 C269.43055832 254.43949946 261.32326239 257.14695913 252.56152344 265.49780273 C252.05959473 265.9727417 251.55766602 266.44768066 251.04052734 266.93701172 C247.50535374 270.32569393 244.19299673 273.87049886 241.05371094 277.62670898 C239.74902344 279.18530273 239.74902344 279.18530273 237.74902344 281.18530273 C235.24881434 280.97266578 234.06740025 280.49602928 232.265625 278.73754883 C228.13955007 273.0286893 224.78069281 267.03635742 221.49902344 260.81030273 C220.35490034 258.67596931 219.21036506 256.54185679 218.06542969 254.40795898 C216.47520926 251.42818119 214.88764203 248.44709613 213.30712891 245.4621582 C205.26655414 229.39049147 205.26655414 229.39049147 191.74902344 218.18530273 C185.7485434 217.19418631 179.54221791 217.01212624 174.31152344 220.43530273 C165.46825113 228.46284342 162.80552584 241.6400123 159.50341797 252.68432617 C158.27383 256.76066894 156.97734274 260.81552298 155.68652344 264.87280273 C154.13654714 269.76731609 152.59826917 274.66539096 151.06896973 279.56640625 C148.98359303 286.24922959 146.88671127 292.92828801 144.77636719 299.60327148 C144.52360519 300.40276718 144.2708432 301.20226288 144.01042175 302.02598572 C142.97502773 305.30016144 141.93927437 308.57422322 140.90307617 311.84814453 C140.13123097 314.28721397 139.3598613 316.72643288 138.58886719 319.16577148 C138.21720932 320.34160042 138.21720932 320.34160042 137.83804321 321.54118347 C136.40826524 326.07248394 135.0004495 330.60977934 133.61230469 335.15405273 C131.83152515 340.9665429 129.93756714 346.73625116 127.99902344 352.49780273 C127.68320312 353.44075195 127.36738281 354.38370117 127.04199219 355.35522461 C126.27908211 357.63239558 125.51475865 359.90908055 124.74902344 362.18530273 C124.41902344 362.18530273 124.08902344 362.18530273 123.74902344 362.18530273 C123.56839355 361.30720947 123.38776367 360.42911621 123.20166016 359.52441406 C121.53091651 351.40341786 119.85915429 343.28263224 118.18611145 335.16210938 C117.43195397 331.50149663 116.67802103 327.84083861 115.92529297 324.17993164 C113.27524352 311.29450954 110.59258508 298.41812665 107.81152344 285.56030273 C105.17637109 273.36316289 102.71653309 261.13476863 100.28442383 248.89599609 C98.45524247 239.69419327 96.58818365 230.50187295 94.66064453 221.32006836 C93.45938932 215.5968411 92.27082288 209.8711855 91.09667969 204.14233398 C87.61236745 187.14424422 84.07988287 170.15934257 80.39697266 153.20288086 C79.79133187 150.38233824 79.20585279 147.55850934 78.62792969 144.73217773 C78.29329672 143.13321889 77.95866149 141.53426052 77.62402344 139.93530273 C77.48971924 139.25081055 77.35541504 138.56631836 77.21704102 137.86108398 C75.88439359 131.60165557 73.76640253 126.01928373 68.99902344 121.68530273 C65.08725807 119.87987256 61.92993729 119.16438191 57.74902344 120.18530273 C50.47409304 123.76264454 48.41476228 131.04926438 45.74902344 138.18530273 C44.44417901 142.06686615 43.28312209 145.9795361 42.15527344 149.91577148 C41.84126587 150.99047195 41.5272583 152.06517242 41.20373535 153.17243958 C40.21237293 156.57072089 39.2304754 159.97164761 38.24902344 163.37280273 C37.59210931 165.63145192 36.93456159 167.88991693 36.27636719 170.14819336 C35.00491175 174.513638 33.73673716 178.88001157 32.47167969 183.24731445 C28.94731344 195.40797647 25.35053826 207.54730034 21.74902344 219.68530273 C19.5134775 227.22509903 17.27932854 234.76526681 15.06152344 242.31030273 C14.76846313 243.30634521 14.76846313 243.30634521 14.46948242 244.32250977 C13.48957355 247.65543772 12.51466872 250.98974453 11.54589844 254.32592773 C9.27793288 262.11761741 6.93467278 269.88172785 4.49902344 277.62280273 C4.24064697 278.44635254 3.98227051 279.26990234 3.71606445 280.1184082 C1.87258222 285.93818517 1.87258222 285.93818517 0.74902344 288.18530273 C-3.16386028 286.71358832 -4.27275167 284.86104623 -6.07250977 281.15991211 C-6.5901741 280.11121948 -7.10783844 279.06252686 -7.64118958 277.98205566 C-8.18917709 276.8425647 -8.73716461 275.70307373 -9.30175781 274.52905273 C-10.18376327 272.73756454 -11.06577802 270.94608086 -11.94831371 269.15485382 C-13.18408367 266.63959869 -14.40907296 264.11916232 -15.63378906 261.59851074 C-17.76114691 257.22061164 -19.89520163 252.8460643 -22.04447937 248.47888184 C-23.18598512 246.15671826 -24.3196004 243.83065325 -25.44392395 241.50012207 C-30.4133198 231.37590904 -35.89095605 221.83905644 -45.25097656 215.18530273 C-51.19715237 213.20324413 -57.92772339 213.10972256 -63.62597656 215.74780273 C-69.50075338 221.20295263 -73.45461388 226.9660267 -77.12597656 234.06030273 C-86.20752783 250.99049084 -86.20752783 250.99049084 -94.25097656 254.18530273 C-97.35150146 254.42581177 -97.35150146 254.42581177 -101.0390625 254.41235352 C-102.04943321 254.4127916 -102.04943321 254.4127916 -103.08021545 254.41323853 C-105.29872682 254.41184914 -107.51689912 254.39630674 -109.73535156 254.38061523 C-111.27662981 254.3768837 -112.81791043 254.37403739 -114.35919189 254.37203979 C-118.40999942 254.36441434 -122.46066286 254.34477526 -126.51141357 254.32263184 C-130.64723766 254.30214993 -134.7830851 254.29303307 -138.91894531 254.28295898 C-147.02968842 254.26152829 -155.14031455 254.22740554 -163.25097656 254.18530273 C-164.20653625 251.65187063 -165.16076634 249.11795069 -166.11425781 246.58374023 C-166.38210083 245.87403076 -166.64994385 245.16432129 -166.92590332 244.43310547 C-171.53203693 232.18057893 -174.52402309 220.14451989 -176.25097656 207.18530273 C-176.39672119 206.09838135 -176.39672119 206.09838135 -176.54541016 204.98950195 C-177.49065613 196.91333396 -177.49346263 188.80543049 -177.50097656 180.68530273 C-177.50198364 179.92896545 -177.50299072 179.17262817 -177.50402832 178.39337158 C-177.49381198 167.04451673 -176.88949456 156.25115623 -174.25097656 145.18530273 C-173.96819141 143.86662059 -173.68695762 142.54760487 -173.40722656 141.22827148 C-166.02845366 107.93400748 -148.59028031 78.66395119 -125.25097656 54.18530273 C-124.52394531 53.40541992 -123.79691406 52.62553711 -123.04785156 51.82202148 C-108.45774972 36.61048938 -90.28369598 24.98417837 -71.25097656 16.18530273 C-70.08824219 15.6400293 -68.92550781 15.09475586 -67.72753906 14.53295898 C-46.46911562 4.97396538 -23.24285216 -0.0025297 0 0 Z " fill="#D64434" transform="translate(686.2509765625,737.814697265625)"/>
  <path d="M0 0 C1.43940037 2.67470735 2.3642884 5.07335264 2.95800781 8.04882812 C3.11890396 8.84012115 3.27980011 9.63141418 3.4455719 10.44668579 C3.61306442 11.29959198 3.78055695 12.15249817 3.953125 13.03125 C4.13379013 13.92629242 4.31445526 14.82133484 4.50059509 15.74349976 C4.88757171 17.6634462 5.27200525 19.58390663 5.65414429 21.50482178 C6.65568691 26.53925979 7.67490366 31.57012791 8.69140625 36.6015625 C8.99181572 38.09274094 8.99181572 38.09274094 9.29829407 39.61404419 C10.86578936 47.38176187 12.50277286 55.13179001 14.1875 62.875 C16.51067759 73.58951097 18.68869533 84.32895196 20.82324219 95.08251953 C22.51748588 103.61242748 24.25873952 112.13084641 26.04418945 120.64208984 C27.22671294 126.28210208 28.39661364 131.92442104 29.55078125 137.5703125 C32.08919139 149.98303502 34.64254599 162.391276 37.30859375 174.77734375 C37.50593109 175.69449158 37.70326843 176.6116394 37.90658569 177.55657959 C38.86810191 182.02089863 39.83333887 186.48437512 40.80371094 190.94677734 C41.16509832 192.61677876 41.52610443 194.28686273 41.88671875 195.95703125 C42.15218002 197.18114716 42.15218002 197.18114716 42.42300415 198.42999268 C43.36164681 202.81363011 44.23084077 207.20125266 45.01806641 211.61474609 C45.18643509 212.54808273 45.35480377 213.48141937 45.52827454 214.44303894 C45.84441107 216.21671266 46.1510087 217.99212693 46.44572449 219.76948547 C47.85928578 227.69219939 50.40616733 235.03324515 56 241 C59.48170171 242.74085086 63.19334576 242.44293279 67 242 C72.70255161 239.41771248 74.68822893 235.55360679 77 230 C78.9085419 224.57907093 80.61748932 219.10045731 82.32421875 213.61328125 C82.8344547 211.99006961 83.34527512 210.36704159 83.85664368 208.7441864 C85.20227098 204.46809902 86.53974363 200.1895034 87.87554932 195.91033936 C89.20297346 191.66324068 90.5384258 187.41866946 91.87304688 183.17382812 C95.82493061 170.59567144 99.76015439 158.01234968 103.66162109 145.41845703 C103.97231458 144.41577868 103.97231458 144.41577868 104.28928471 143.3928442 C105.24170451 140.31823003 106.19258283 137.24315267 107.14103699 134.16731262 C109.33003791 127.0857158 111.62059306 120.04631469 114.00476074 113.02828979 C115.96107276 107.26547702 117.66755447 101.43765505 119.26464844 95.56542969 C120.36778341 91.63996336 121.72563881 88.38860155 124 85 C127.80969097 86.46377179 129.0171116 88.24185561 130.8828125 91.8125 C131.40528564 92.79710205 131.92775879 93.7817041 132.46606445 94.79614258 C133.01351318 95.85341553 133.56096191 96.91068848 134.125 98 C135.28716915 100.19171987 136.44993515 102.38312336 137.61328125 104.57421875 C138.18643066 105.6626709 138.75958008 106.75112305 139.35009766 107.87255859 C150.32935863 131.08541161 150.32935863 131.08541161 169 147.375 C175.6418746 148.75872387 180.23203856 148.11549788 186.17578125 144.95703125 C192.1730625 140.80123885 197.01561155 135.28886848 202 130 C207.43042359 124.25709481 210.84028137 120.82674424 218.88461304 120.51898193 C221.31157344 120.50740347 223.7386999 120.51798095 226.16552734 120.54589844 C227.50629645 120.54702774 228.84706802 120.54639144 230.18783569 120.54412842 C233.81568229 120.54298353 237.44299692 120.56645558 241.0707202 120.59442425 C244.8663432 120.61947589 248.6619792 120.62178285 252.45767212 120.62652588 C259.63994774 120.63894466 266.82197901 120.67175121 274.00414717 120.71192384 C282.18305623 120.75667588 290.36197712 120.77863719 298.54097819 120.79870558 C315.36079503 120.84048497 332.1803663 120.91081543 349 121 C347.72661319 123.25191584 346.45052906 125.50222926 345.17285156 127.75170898 C344.63526718 128.70338078 344.63526718 128.70338078 344.08682251 129.67427826 C341.56855153 134.10124447 338.93723524 138.09850146 335.75 142.0625 C334.94046875 143.08472656 334.1309375 144.10695313 333.296875 145.16015625 C321.67184929 158.93673833 308.66492878 171.48019374 295.92349815 184.20722651 C292.92797176 187.20046863 289.93535115 190.19661373 286.94233704 193.19236755 C281.09800049 199.04112687 275.25099309 204.88720888 269.40299003 210.73230192 C264.65269254 215.48033396 259.90338059 220.22934973 255.15475845 224.97905731 C254.47699827 225.65697072 253.79923809 226.33488414 253.10093973 227.03334038 C251.72390237 228.41069748 250.34686725 229.78805681 248.96983434 231.16541836 C236.09265936 244.04543726 223.21243406 256.92240226 210.33114542 269.79830691 C199.27403455 280.85093957 188.2195637 291.90620699 177.16699219 302.96337891 C164.31767162 315.81804527 151.46673814 328.67109561 138.61320698 341.52155185 C137.24449719 342.88994309 135.87578949 344.25833643 134.50708389 345.62673187 C133.49700528 346.63657907 133.49700528 346.63657907 132.46652105 347.66682722 C127.71598301 352.41650094 122.96660809 357.16733581 118.21767807 361.91861725 C112.44081162 367.69828143 106.66218074 373.47617439 100.88124554 379.25176904 C97.93086507 382.19951387 94.9813038 385.14806656 92.03388786 388.09877586 C89.33972052 390.79590827 86.64328242 393.49074796 83.94496144 396.18372473 C82.96595124 397.1616118 81.98779563 398.14035528 81.01055311 399.12000886 C79.68893944 400.4446346 78.36398342 401.76592314 77.03883171 403.08700943 C76.30184418 403.82383461 75.56485664 404.56065979 74.80553615 405.31981301 C71.64501874 408.26091183 68.8144023 408.69273014 64.59042048 408.61864209 C58.94983409 407.27156188 55.23473929 402.43937 51.3109436 398.41342163 C50.26109933 397.36965293 49.20928647 396.32786117 48.15568769 395.28788245 C45.2693563 392.42748315 42.4118039 389.53976074 39.55819654 386.64676428 C36.47414016 383.53000333 33.36417257 380.43928753 30.25733948 377.34526062 C24.17418547 371.27901257 18.11525165 365.18911216 12.06400062 359.09105788 C5.00905241 351.98346389 -2.07004737 344.90013129 -9.15037568 337.81783481 C-21.79267576 325.17046881 -34.41365391 312.50203886 -47.02246094 299.82128906 C-59.23959655 287.53449666 -71.47017834 275.26131394 -83.71679688 263.00390625 C-84.4698968 262.25013802 -85.22299673 261.49636979 -85.99891786 260.71976011 C-87.51620904 259.20114106 -89.03350112 257.6825229 -90.5507941 256.16390566 C-91.29938458 255.41465648 -92.04797507 254.6654073 -92.81925011 253.8934536 C-93.56602936 253.14602639 -94.31280861 252.39859918 -95.08221754 251.62852266 C-106.7708432 239.92876364 -118.44797861 228.21754055 -130.12355315 216.50475936 C-134.34551986 212.26952952 -138.56895065 208.03576617 -142.79341672 203.8030294 C-149.50247909 197.08060903 -156.20640987 190.35315388 -162.90040039 183.61572252 C-165.95637461 180.5400634 -169.01449358 177.46663295 -172.07913399 174.3996067 C-195.69490404 150.75868213 -195.69490404 150.75868213 -204 139 C-204.53833654 138.24342794 -205.07667309 137.48685589 -205.63132286 136.70735741 C-206.83753453 134.95790364 -207.9863268 133.16914559 -209.125 131.375 C-209.49625 130.80394531 -209.8675 130.23289062 -210.25 129.64453125 C-212.07039778 126.78105882 -213.28127471 124.3022273 -214 121 C-213.22040924 120.99857498 -212.44081848 120.99714996 -211.63760376 120.99568176 C-204.25288071 120.97777448 -196.86884815 120.93593459 -189.48443031 120.86790943 C-185.688923 120.83377061 -181.89381257 120.80855011 -178.09814453 120.80444336 C-174.42784563 120.80013188 -170.75844 120.77143764 -167.08842087 120.72656822 C-165.6956136 120.71368325 -164.30269893 120.70925329 -162.90983963 120.71384621 C-152.69366924 120.73966241 -145.11266514 119.41548353 -137.25 112.625 C-136.5075 111.75875 -135.765 110.8925 -135 110 C-134.5654248 109.53625977 -134.13084961 109.07251953 -133.68310547 108.59472656 C-128.39600517 102.80059495 -124.98864072 96.09672789 -121.32421875 89.2109375 C-120.82277344 88.29828125 -120.32132813 87.385625 -119.8046875 86.4453125 C-119.36108887 85.61531738 -118.91749023 84.78532227 -118.46044922 83.93017578 C-116.71189594 81.61923258 -115.75494985 81.54755427 -113 81 C-107.7729437 88.00188537 -103.68525793 95.16802938 -99.91015625 103.03515625 C-98.78481633 105.3315327 -97.65915557 107.62775194 -96.53320312 109.92382812 C-94.79270229 113.49790864 -93.05687622 117.07413926 -91.32739258 120.65356445 C-89.63825893 124.14115537 -87.93147615 127.61967826 -86.22265625 131.09765625 C-85.71718765 132.15727066 -85.21171906 133.21688507 -84.69093323 134.30860901 C-80.49061836 142.82274238 -75.57691402 150.443856 -67 155 C-60.88926475 156.00208199 -55.33878481 155.1827371 -50 152 C-41.87068045 145.12435865 -39.81591126 133.75425667 -36.87890625 123.953125 C-36.58689835 122.9862677 -36.29489044 122.0194104 -35.99403381 121.02325439 C-31.10792824 104.784067 -26.37438309 88.4987441 -21.61303711 72.22265625 C-20.3156296 67.78847779 -19.01622504 63.35488882 -17.71484375 58.921875 C-17.50622774 58.21108229 -17.29761173 57.50028957 -17.08267403 56.76795769 C-14.44229974 47.78141088 -11.72833317 38.82352665 -8.86737061 29.90437317 C-6.96509616 23.95883593 -5.27286481 17.97425123 -3.6875 11.9375 C-3.19327132 10.0711197 -2.69727209 8.20520706 -2.19921875 6.33984375 C-1.99127686 5.54956787 -1.78333496 4.75929199 -1.5690918 3.94506836 C-1 2 -1 2 0 0 Z " fill="#CA3E2F" transform="translate(747,889)"/>
  <path d="M0 0 C21.8872425 0.10709321 43.77444941 0.219828 65.66162777 0.33933926 C75.8234789 0.39469378 85.98533354 0.44817938 96.1472168 0.49731445 C105.00095832 0.54012904 113.85467376 0.58640004 122.70837504 0.63687855 C127.39936004 0.66350152 132.0903398 0.68835505 136.7813549 0.70907402 C141.19141789 0.72860659 145.60143112 0.75274002 150.01144981 0.78049088 C151.63486582 0.78987928 153.25829277 0.79754807 154.88172531 0.80341911 C157.08847728 0.81165004 159.2951075 0.82591786 161.5018158 0.84178162 C162.73978377 0.84823417 163.97775175 0.85468672 165.25323391 0.8613348 C168 1 168 1 169 2 C169.13078908 4.58346539 169.19676053 7.14152724 169.22119141 9.72680664 C169.23840775 10.9498552 169.23840775 10.9498552 169.25597191 12.19761181 C169.29295119 14.93508722 169.32246152 17.67258647 169.3515625 20.41015625 C169.37517484 22.3437325 169.39902383 24.27730588 169.4230957 26.21087646 C169.48581504 31.41663125 169.54056109 36.62243972 169.59253693 41.82831192 C169.62485548 45.04810155 169.65884221 48.26787037 169.6930542 51.48764038 C169.97919223 78.93414848 170.07792171 106.36765433 169.625 133.8125 C169.60344928 135.18620801 169.58190382 136.55991609 169.56036377 137.93362427 C169.49839742 141.69162188 169.42770602 145.44929672 169.3515625 149.20703125 C169.32171265 150.85164337 169.32171265 150.85164337 169.29125977 152.52947998 C169.26813721 153.51079895 169.24501465 154.49211792 169.22119141 155.50317383 C169.20263092 156.35438309 169.18407043 157.20559235 169.16494751 158.08259583 C169 160 169 160 168 161 C165.81942003 161.09827694 163.63559805 161.12464544 161.45280457 161.12457275 C160.7605685 161.1259829 160.06833244 161.12739305 159.35511953 161.12884593 C157.01822049 161.1325176 154.68138144 161.12915442 152.34448242 161.12597656 C150.67596896 161.12737044 149.00745585 161.12926916 147.33894348 161.13163757 C143.73703413 161.13614399 140.1351362 161.13799087 136.53322411 161.13809967 C130.84017912 161.139237 125.14719943 161.15205312 119.45417786 161.16766357 C118.49462934 161.17023643 117.53508083 161.17280928 116.54645509 161.1754601 C114.58387433 161.18072696 112.62129363 161.18601244 110.65871298 161.19131613 C97.39868608 161.22646867 84.13873943 161.25297691 70.87866211 161.25048828 C61.94277255 161.24890133 53.00710453 161.26489819 44.07128602 161.30119491 C39.33929745 161.31968652 34.60767887 161.32897023 29.87566185 161.31671906 C25.42431844 161.30530692 20.97363781 161.31692787 16.52238274 161.34635353 C14.88732859 161.35301054 13.25221409 161.35109923 11.61718369 161.34005547 C9.38670653 161.32623829 7.15848388 161.34301006 4.92814636 161.36749268 C3.05516766 161.36969252 3.05516766 161.36969252 1.14435101 161.3719368 C-2.16924984 161.73551969 -2.16924984 161.73551969 -4.40336609 164.36022186 C-6.32202878 167.53242295 -6.47982207 169.37813595 -6.43823242 173.06738281 C-6.43474289 174.27737442 -6.43125336 175.48736603 -6.42765808 176.73402405 C-6.4038356 178.04382736 -6.38001312 179.35363068 -6.35546875 180.703125 C-6.34508743 182.08795396 -6.33664974 183.47279869 -6.33003235 184.85765076 C-6.31261696 187.79825548 -6.28343797 190.7384028 -6.24462891 193.67880249 C-6.15477655 200.53749061 -6.12378462 207.39655757 -6.08705521 214.25569725 C-6.07422097 216.53476171 -6.0590114 218.81380175 -6.04354858 221.09284973 C-5.96508578 233.63095384 -6.13744314 246.15410058 -6.5 258.6875 C-6.5242807 259.54984253 -6.5485614 260.41218506 -6.57357788 261.30065918 C-6.70355905 265.86754132 -6.84478294 270.43389399 -7 275 C-7.33 275 -7.66 275 -8 275 C-8.09347935 260.74419994 -8.16373073 246.48844748 -8.20724869 232.23240376 C-8.22813389 225.61291698 -8.25646928 218.99363594 -8.30175781 212.37426758 C-8.34518121 205.98762677 -8.36913008 199.60118399 -8.37950897 193.21440697 C-8.38690656 190.77630686 -8.40135207 188.33821773 -8.42292023 185.9002018 C-8.45190658 182.48832297 -8.45595786 179.07726512 -8.45410156 175.6652832 C-8.46848267 174.65467834 -8.48286377 173.64407349 -8.49768066 172.60284424 C-8.47174932 168.20555756 -8.43512512 165.70961253 -6.09661865 161.8959198 C-2.48447498 158.62954864 -0.15094083 158.87618449 4.65640259 158.87974548 C5.69414639 158.87846385 5.69414639 158.87846385 6.7528547 158.87715632 C9.08216997 158.87550291 11.41141398 158.88102061 13.74072266 158.88647461 C15.4060211 158.88675654 17.07131967 158.88659864 18.73661804 158.8860321 C23.26735767 158.88574435 27.798071 158.89163757 32.32880449 158.89860606 C37.06005248 158.90484321 41.79130102 158.90544369 46.52255249 158.90663147 C55.48627304 158.90974372 64.44998145 158.91795568 73.41369665 158.92798096 C85.5232441 158.94123161 97.63279485 158.94664287 109.74234772 158.95248318 C128.82824092 158.96189563 147.91410848 158.98181526 167 159 C167 107.19 167 55.38 167 2 C111.89 2 56.78 2 0 2 C0 1.34 0 0.68 0 0 Z " fill="#55A0D2" transform="translate(1166,657)"/>
  <path d="M0 0 C0.70319339 0.00086648 1.40638678 0.00173296 2.13088906 0.0026257 C3.24380544 -0.00183098 3.24380544 -0.00183098 4.37920499 -0.0063777 C6.88426361 -0.015102 9.38927466 -0.01657607 11.89434731 -0.01806521 C13.68270896 -0.02269075 15.47106961 -0.02771504 17.2594291 -0.03311038 C22.13131638 -0.04626176 27.00318987 -0.05268463 31.87509215 -0.05712104 C34.91559168 -0.0600473 37.95608739 -0.06415124 40.99658501 -0.06862521 C50.50011403 -0.08230722 60.00363439 -0.09197048 69.50717258 -0.0958271 C80.49524528 -0.10031004 91.48319371 -0.11786592 102.4712286 -0.1468277 C110.95275672 -0.16841057 119.4342498 -0.17852956 127.9158051 -0.17986822 C132.98695697 -0.18091867 138.05799215 -0.18687726 143.12911522 -0.20468783 C147.89790773 -0.22111002 152.66649509 -0.22335266 157.43530571 -0.21454883 C159.18851436 -0.2137753 160.94173376 -0.21816239 162.69491494 -0.22800708 C165.0828376 -0.24063271 167.47002335 -0.23490165 169.85793984 -0.22442508 C170.55667179 -0.23248148 171.25540373 -0.24053789 171.97530937 -0.24883842 C174.93634716 -0.21831797 176.69583102 -0.18862963 179.07536423 1.66603589 C179.42055541 2.15345635 179.76574658 2.64087682 180.12139809 3.1430676 C178.69538545 3.13891953 178.69538545 3.13891953 177.24056447 3.13468766 C154.1316708 3.06815305 131.02278953 3.01882081 107.91382039 2.98763108 C96.73859361 2.97214791 85.56343002 2.95103071 74.38824379 2.91674924 C64.65041554 2.88689125 54.91263304 2.86750316 45.17476028 2.86080211 C40.01639392 2.85688374 34.85815848 2.847645 29.69983399 2.82587743 C24.84816978 2.80556912 19.99669086 2.7992223 15.14498818 2.80374455 C13.36113713 2.80291681 11.57728012 2.79691758 9.79346573 2.78545117 C7.36390595 2.77059531 4.9350521 2.77408835 2.50547707 2.78230405 C1.43884671 2.76919626 1.43884671 2.76919626 0.35066825 2.75582367 C-2.3626094 2.78074183 -4.42801246 2.88791133 -6.81518638 4.23970151 C-8.44127795 7.15017956 -8.26510025 9.63871735 -8.27732933 12.95768857 C-8.28397615 13.65445575 -8.29062298 14.35122292 -8.29747123 15.06910425 C-8.31615822 17.40925451 -8.31349221 19.74889605 -8.31097496 22.08911252 C-8.31998867 23.76441796 -8.33031492 25.43971677 -8.34185874 27.11500669 C-8.36950089 31.66842011 -8.37872302 36.22170864 -8.38471282 40.77519512 C-8.39407776 45.53184715 -8.42027956 50.2884052 -8.44471824 55.04499936 C-8.48843878 64.05470296 -8.51695159 73.06438837 -8.54004163 82.07416588 C-8.56706357 92.33044246 -8.61097689 102.58662476 -8.65633035 112.84283412 C-8.74925616 133.94286127 -8.82090051 155.04291665 -8.87860191 176.1430676 C-9.53860191 176.1430676 -10.19860191 176.1430676 -10.87860191 176.1430676 C-10.99536332 154.06423868 -11.08355488 131.9854606 -11.13766277 109.90638566 C-11.16345293 99.65485244 -11.19861902 89.40351096 -11.25579917 79.1521008 C-11.30560922 70.21777006 -11.33788702 61.28357818 -11.34904438 52.34911245 C-11.35556721 47.61757506 -11.3709145 42.88643493 -11.40725219 38.15502477 C-11.44117382 33.70215224 -11.45166268 29.24984086 -11.44414032 24.7968514 C-11.44551659 23.16217492 -11.45547222 21.52747981 -11.47462928 19.89291501 C-11.49950945 17.6606528 -11.49352809 15.43050883 -11.47987449 13.1981976 C-11.48448346 11.94916811 -11.48909242 10.70013862 -11.49384105 9.41325974 C-10.71386687 5.26744837 -9.05608656 3.81293644 -5.87860191 1.1430676 C-4.21940099 -0.51613332 -2.21720779 0.01343063 0 0 Z " fill="#3F94CD" transform="translate(992.8786019086838,464.8569324016571)"/>
  <path d="M0 0 C0.33 0 0.66 0 1 0 C1.20414365 14.3331287 1.3907274 28.66644644 1.5625 43 C1.57523327 44.06167641 1.58796654 45.12335281 1.60108566 46.21720123 C1.93909518 74.77709028 2.09751226 103.31703476 1.5625 131.875 C1.54968616 132.55983459 1.53687233 133.24466919 1.5236702 133.95025635 C1.37170155 141.96737845 1.19935054 149.98391693 1 158 C0.67 158 0.34 158 0 158 C0 105.86 0 53.72 0 0 Z M-164.98919678 157.39872742 C-163.93051372 157.39231923 -163.93051372 157.39231923 -162.85044312 157.38578159 C-160.48526186 157.37754496 -158.12185378 157.40504442 -155.75683594 157.43237305 C-154.06168662 157.43378339 -152.36653425 157.43299181 -150.67138672 157.43016052 C-146.06819759 157.4287244 -141.4656583 157.45814567 -136.86262035 157.49303031 C-132.05267305 157.52426129 -127.24271127 157.52722197 -122.43267822 157.53315735 C-113.32368077 157.54870538 -104.21498293 157.58974685 -95.10611749 157.6399048 C-84.73625227 157.69576839 -74.36637284 157.72327725 -63.99639463 157.74838197 C-42.66409579 157.80066185 -21.33206676 157.88862281 0 158 C0 158.33 0 158.66 0 159 C-1.30867098 159.00081715 -1.30867098 159.00081715 -2.64377975 159.00165081 C-23.85879384 159.01660907 -45.07359754 159.05901715 -66.28849411 159.13209057 C-76.54782241 159.16676417 -86.80701602 159.1920992 -97.06640625 159.19555664 C-106.00706284 159.19859324 -114.94747969 159.21904268 -123.88804364 159.26052457 C-128.6233842 159.28188396 -133.35838369 159.29444015 -138.09377289 159.28615379 C-142.54922958 159.27863216 -147.00399413 159.2943589 -151.45932388 159.32806015 C-153.09598119 159.33631632 -154.73270703 159.33601646 -156.36935806 159.32659721 C-158.6021011 159.31501767 -160.83255958 159.33402328 -163.06512451 159.36076355 C-164.3150758 159.36352893 -165.56502708 159.36629431 -166.85285568 159.36914349 C-170.16888152 159.73553066 -170.16888152 159.73553066 -172.40378666 162.36064243 C-174.32207809 165.53255992 -174.47981746 167.37854516 -174.43823242 171.06738281 C-174.43474289 172.27737442 -174.43125336 173.48736603 -174.42765808 174.73402405 C-174.4038356 176.04382736 -174.38001312 177.35363068 -174.35546875 178.703125 C-174.34508743 180.08795396 -174.33664974 181.47279869 -174.33003235 182.85765076 C-174.31261696 185.79825548 -174.28343797 188.7384028 -174.24462891 191.67880249 C-174.15477655 198.53749061 -174.12378462 205.39655757 -174.08705521 212.25569725 C-174.07422097 214.53476171 -174.0590114 216.81380175 -174.04354858 219.09284973 C-173.96508578 231.63095384 -174.13744314 244.15410058 -174.5 256.6875 C-174.5242807 257.54984253 -174.5485614 258.41218506 -174.57357788 259.30065918 C-174.70355905 263.86754132 -174.84478294 268.43389399 -175 273 C-175.33 273 -175.66 273 -176 273 C-176.09347935 258.74419994 -176.16373073 244.48844748 -176.20724869 230.23240376 C-176.22813389 223.61291698 -176.25646928 216.99363594 -176.30175781 210.37426758 C-176.34518121 203.98762677 -176.36913008 197.60118399 -176.37950897 191.21440697 C-176.38690656 188.77630686 -176.40135207 186.33821773 -176.42292023 183.9002018 C-176.45190658 180.48832297 -176.45595786 177.07726512 -176.45410156 173.6652832 C-176.46848267 172.65467834 -176.48286377 171.64407349 -176.49768066 170.60284424 C-176.49218201 169.67041397 -176.48668335 168.7379837 -176.48101807 167.77729797 C-176.48470524 166.97072911 -176.48839241 166.16416025 -176.49219131 165.33314991 C-175.08073322 158.64237088 -171.30357162 157.37571585 -164.98919678 157.39872742 Z " fill="#2386C7" transform="translate(1334,659)"/>
  <path d="M0 0 C-1.20381448 2.49361571 -2.45428722 4.68143083 -4 7 C-4.28430016 9.72187754 -4.28430016 9.72187754 -4.21118164 12.84033203 C-4.20784317 14.0504747 -4.2045047 15.26061737 -4.20106506 16.50743103 C-4.18749955 17.84089224 -4.17386112 19.17435271 -4.16015625 20.5078125 C-4.15352541 21.89550844 -4.14792569 23.28320964 -4.14329529 24.6709137 C-4.13196782 27.62330473 -4.1151002 30.57558812 -4.09375 33.52792358 C-4.03933793 41.17346846 -4.02164571 48.81914072 -4.00390625 56.46484375 C-4.00186314 57.22173052 -3.99982002 57.97861729 -3.997715 58.75844002 C-3.96422806 72.07381289 -4.12490466 85.37681415 -4.5 98.6875 C-4.52409943 99.54966125 -4.54819885 100.41182251 -4.57302856 101.30010986 C-4.70312245 105.86717441 -4.84477667 110.43370951 -5 115 C-5.33 115 -5.66 115 -6 115 C-6.09347935 100.74419994 -6.16373073 86.48844748 -6.20724869 72.23240376 C-6.22813389 65.61291698 -6.25646928 58.99363594 -6.30175781 52.37426758 C-6.34518121 45.98762677 -6.36913008 39.60118399 -6.37950897 33.21440697 C-6.38690656 30.77630686 -6.40135207 28.33821773 -6.42292023 25.9002018 C-6.45190658 22.48832297 -6.45595786 19.07726512 -6.45410156 15.6652832 C-6.46848267 14.65467834 -6.48286377 13.64407349 -6.49768066 12.60284424 C-6.47162951 8.18524062 -6.41208213 5.68556473 -4.09661865 1.8334198 C-2 0 -2 0 0 0 Z " fill="#3E9DDD" transform="translate(1164,817)"/>
  <path d="M0 0 C0 0.66 0 1.32 0 2 C-1.64939716 3.02823479 -3.32053418 4.02164815 -5 5 C-6.96130259 6.53251579 -8.89847882 8.09632577 -10.8125 9.6875 C-12.27623047 10.89986328 -12.27623047 10.89986328 -13.76953125 12.13671875 C-14.50558594 12.75160156 -15.24164062 13.36648438 -16 14 C-16.66 13.67 -17.32 13.34 -18 13 C-6.03846154 0 -6.03846154 0 0 0 Z " fill="#DAE0E7" transform="translate(952,994)"/>
  <path d="M0 0 C0 4.13781054 -1.71509607 5.20919996 -4.5 8.1875 C-5.3353125 9.08855469 -6.170625 9.98960938 -7.03125 10.91796875 C-8.00578125 11.94857422 -8.00578125 11.94857422 -9 13 C-9.99 12.67 -10.98 12.34 -12 12 C-8.04 8.04 -4.08 4.08 0 0 Z " fill="#D54C3E" transform="translate(948,1020)"/>
  <path d="M0 0 C-1.52708963 3.43595166 -3.59927045 6.11912454 -6 9 C-5.38983051 3.50847458 -5.38983051 3.50847458 -3.5625 1.125 C-2 0 -2 0 0 0 Z " fill="#419EDC" transform="translate(1164,817)"/>
  <path d="M0 0 C3.3 0.33 6.6 0.66 10 1 C10 1.66 10 2.32 10 3 C8.5199159 2.88637738 7.04089926 2.75877092 5.5625 2.625 C4.73878906 2.55539062 3.91507813 2.48578125 3.06640625 2.4140625 C2.38449219 2.27742187 1.70257812 2.14078125 1 2 C0.67 1.34 0.34 0.68 0 0 Z " fill="#E6584A" transform="translate(957,739)"/>
</svg>
