<svg version="1.1" id="Layer_1" xmlns="http://www.w3.org/2000/svg" xmlns:xlink="http://www.w3.org/1999/xlink" x="0px" y="0px"
	 width="100%" viewBox="0 0 313 313" enable-background="new 0 0 313 313" xml:space="preserve">
<path fill="#000000" opacity="1.000000" stroke="none" 
	d="
M178.000000,314.000000 
	C118.666695,314.000000 59.833389,314.000000 1.000063,314.000000 
	C1.000042,209.666748 1.000042,105.333488 1.000021,1.000175 
	C105.333199,1.000117 209.666397,1.000117 313.999695,1.000058 
	C313.999817,105.333160 313.999817,209.666321 313.999908,313.999756 
	C268.833344,314.000000 223.666672,314.000000 178.000000,314.000000 
M187.014343,225.047150 
	C187.014343,225.047150 187.054031,225.045380 187.661758,224.833908 
	C187.890381,224.236893 188.119019,223.639877 188.816177,222.835190 
	C189.213089,222.290146 189.609985,221.745087 190.744431,221.147018 
	C195.267731,216.441910 199.791031,211.736801 204.680054,206.940170 
	C204.917603,206.794632 205.033325,206.582611 205.659683,205.957626 
	C206.905914,203.995026 208.152161,202.032425 209.802200,199.837784 
	C210.058533,199.613892 210.169159,199.332596 210.045059,199.048996 
	C210.045059,199.048996 210.146439,199.021072 211.058548,199.104996 
	C217.284470,199.105133 223.513657,199.208939 229.733322,199.011749 
	C230.880219,198.975372 231.988495,197.720963 233.796906,196.662308 
	C233.828003,195.122375 233.859100,193.582428 234.003738,191.099243 
	C233.943283,177.364319 233.882828,163.629379 234.076126,149.633301 
	C234.076126,149.633301 233.955933,149.289597 234.891159,149.121933 
	C249.917465,149.052551 264.943787,148.983154 280.551636,148.965225 
	C280.773193,148.653900 280.994751,148.342560 281.510864,148.051529 
	C281.510864,148.051529 281.780304,147.930664 282.699921,148.110092 
	C283.149933,146.891708 283.985748,145.675125 283.991516,144.454651 
	C284.067169,128.414764 284.047150,112.374229 283.970032,96.334244 
	C283.964325,95.148827 283.336761,93.966408 282.987335,92.500107 
	C282.987335,92.500107 282.846954,92.254723 282.730865,91.340324 
	C268.147797,91.313400 253.564743,91.286476 238.150620,91.173340 
	C236.764130,91.090889 235.377625,91.008446 233.995789,90.003960 
	C233.996704,75.111343 234.029480,60.218548 233.944977,45.326416 
	C233.937241,43.964565 233.178741,42.606979 232.500137,41.041519 
	C232.500137,41.041519 232.162323,41.063438 231.717117,40.288193 
	C214.282883,40.207558 196.848648,40.118626 179.414322,40.086967 
	C178.899689,40.086033 178.383987,40.687943 177.129517,41.005295 
	C176.810516,42.020363 176.491516,43.035431 176.051956,44.974522 
	C176.091537,57.640770 176.131119,70.307022 176.031586,83.851349 
	C175.995682,86.218575 175.959778,88.585793 175.522644,91.056046 
	C175.522644,91.056046 175.138306,91.210045 174.185654,91.032639 
	C158.803268,91.074631 143.420868,91.116615 127.279739,91.267555 
	C126.522415,92.800438 125.149536,94.319176 125.113945,95.868637 
	C124.956894,102.705055 125.085297,109.554749 125.388443,116.387299 
	C125.430656,117.338730 126.908104,118.757996 127.927902,118.971046 
	C128.786392,119.150398 130.524460,118.105858 130.853409,117.223099 
	C131.578217,115.278076 131.837158,113.103981 131.964828,111.003838 
	C132.206833,107.023483 132.222916,103.029388 133.015381,98.678535 
	C135.660431,98.432449 138.305466,98.186371 141.889389,98.089066 
	C150.898590,98.022820 159.907776,97.956573 169.824005,98.085762 
	C173.848923,97.321724 178.386124,99.946892 182.739487,95.772598 
	C182.791763,79.638176 182.844025,63.503757 183.578430,47.138515 
	C184.051010,47.058823 184.523590,46.979134 185.504944,47.035110 
	C185.675644,46.994156 185.846329,46.953197 186.941574,47.063442 
	C198.656723,47.062847 210.372177,47.019901 222.086639,47.109055 
	C223.770081,47.121864 225.448654,47.771446 227.020111,49.037758 
	C227.009293,63.479492 226.963547,77.921394 227.034180,92.362732 
	C227.042496,94.064713 227.689590,95.763565 228.630005,98.029617 
	C231.781097,97.980347 234.932175,97.931084 238.997940,98.033997 
	C251.671768,97.987816 264.345612,97.941635 277.453613,98.400818 
	C277.630676,111.602829 277.770447,124.805527 278.013184,138.006332 
	C278.068054,140.989899 276.846375,142.199448 273.886536,142.135315 
	C270.584290,142.063782 267.276306,142.257187 263.045929,142.198990 
	C256.685242,142.235626 250.324585,142.272263 243.067108,142.119537 
	C239.397324,142.182358 235.727524,142.245163 231.317764,142.178604 
	C230.320007,142.214218 229.322266,142.249817 227.391022,142.262726 
	C227.326904,150.830795 227.262787,159.398880 227.050827,168.898071 
	C227.028366,176.573853 227.005905,184.249649 226.070038,192.073196 
	C222.110748,192.050598 218.151474,192.028000 214.065552,191.245590 
	C214.413467,189.514496 214.761383,187.783386 215.062714,185.989868 
	C215.062714,185.989868 215.067215,186.067291 215.743195,185.635284 
	C217.192123,176.999390 218.614975,168.364243 214.963303,159.083115 
	C214.077682,152.435715 210.780777,146.881378 207.105347,141.462708 
	C201.428772,133.093719 193.870529,126.889023 184.599014,123.174660 
	C174.186615,119.003227 163.305389,117.405739 152.144333,120.147713 
	C145.225449,121.847488 138.406296,123.788292 132.885544,128.946030 
	C132.885544,128.946030 132.887054,129.121124 132.259186,129.113968 
	C131.565659,129.746445 130.872116,130.378922 130.017532,131.483780 
	C130.017532,131.483780 129.893707,131.967270 129.305054,132.201492 
	C128.155411,131.910233 126.444695,132.000854 125.945267,131.267044 
	C122.093414,125.607620 115.634331,125.116463 109.624054,122.259529 
	C105.881500,121.311508 102.180771,119.862854 98.385498,119.545715 
	C93.922394,119.172783 89.377258,119.781548 84.061897,120.031616 
	C81.816185,120.470924 79.542191,120.800026 77.329430,121.367783 
	C64.830170,124.574867 56.086319,132.752640 48.294243,143.277817 
	C46.365807,147.192825 43.995987,150.956726 42.594040,155.051956 
	C38.817280,166.084274 39.002239,177.315521 42.209126,188.468033 
	C43.063236,191.438354 44.661514,193.564133 48.571621,193.175064 
	C53.013840,192.733032 57.592674,192.625900 62.003899,193.201935 
	C66.431870,193.780151 68.484444,191.175598 69.840767,188.145264 
	C71.681808,184.031982 74.242165,181.792023 78.803024,182.200806 
	C78.803024,182.200806 78.865044,182.218857 78.849335,182.871445 
	C79.915977,184.066345 80.982613,185.261246 82.180618,186.786087 
	C82.180618,186.786087 82.512032,186.913651 82.800079,187.489716 
	C85.158493,192.012039 87.516914,196.534363 89.833641,201.135635 
	C89.833641,201.135635 89.909515,201.182678 89.877983,201.929184 
	C91.956367,204.309616 93.174538,202.490448 93.650169,200.795212 
	C94.927139,196.243973 95.841759,191.591080 96.972641,186.534775 
	C96.972641,186.534775 97.048264,186.091553 97.696129,185.712387 
	C98.484962,182.485641 99.273804,179.258881 100.698181,175.650330 
	C101.496574,172.981247 102.077904,170.221970 103.141373,167.663055 
	C104.998871,163.193527 104.268364,157.296677 110.390503,155.031128 
	C110.390503,155.031128 110.845642,155.096405 111.016266,155.579758 
	C111.292984,155.762650 111.569710,155.945526 111.943214,156.851562 
	C113.017609,159.564728 114.092003,162.277878 115.027191,165.769897 
	C115.350716,167.181870 115.674240,168.593857 116.032600,170.673447 
	C116.090973,171.110504 116.149345,171.547562 116.073769,172.781082 
	C117.016449,177.118134 118.004379,181.445969 118.889114,185.794800 
	C119.777664,190.162430 120.469749,194.571426 121.420135,198.924683 
	C122.397797,203.402878 123.569244,207.839203 124.682404,212.287231 
	C125.663925,216.209274 124.155151,220.983124 128.494644,224.607712 
	C131.718521,214.151459 134.573669,204.477203 137.726959,194.901123 
	C138.751617,191.789322 140.555756,188.934189 142.624222,186.068756 
	C143.042282,186.096649 143.460358,186.124557 143.915924,186.866684 
	C143.922546,187.581177 143.929184,188.295670 143.317978,189.364548 
	C138.947342,202.911575 134.576706,216.458618 130.001587,230.778671 
	C125.809616,232.800659 125.308197,232.636292 123.933838,228.594147 
	C122.847023,225.397736 121.824280,222.179550 120.909859,218.161926 
	C120.285728,215.738312 119.661598,213.314713 118.987129,210.196732 
	C118.605263,209.127945 118.223396,208.059158 117.969490,206.118637 
	C116.525398,192.453430 113.910667,179.056396 109.741257,166.015533 
	C108.968307,165.948959 108.195358,165.882401 107.422409,165.815826 
	C104.679893,176.213654 101.937378,186.611496 99.052864,197.467773 
	C99.052864,197.467773 98.977356,197.941711 98.382454,198.290955 
	C98.247719,199.191345 98.112984,200.091751 97.372169,201.330521 
	C95.389153,204.525085 95.249176,210.053192 88.747337,207.283463 
	C85.742538,201.669205 82.800720,196.019745 79.695183,190.461761 
	C78.742912,188.757492 77.342094,187.303833 75.092346,184.352127 
	C70.944817,201.338669 58.263176,197.923767 47.049004,198.087662 
	C50.327991,208.839340 59.806602,213.625839 66.006706,221.101517 
	C69.779411,225.650391 74.536362,229.370300 78.698975,233.611969 
	C82.898460,237.891235 86.785446,242.480026 91.032570,246.709015 
	C97.547478,253.196136 104.315254,259.428741 110.858444,265.888184 
	C115.897156,270.862396 120.582527,276.211823 125.838577,280.934113 
	C126.902557,281.890045 130.554352,281.584442 131.753906,280.485718 
	C136.511978,276.127533 140.731995,271.186859 145.223602,266.531708 
	C151.491043,260.036011 157.823090,253.602600 164.836517,247.120468 
	C171.840347,240.033295 178.844162,232.946121 186.431656,225.980408 
	C186.637955,225.676666 186.844238,225.372925 187.014343,225.047150 
z"/>
<path fill="#BF3C2F" opacity="1.000000" stroke="none" 
	d="
M164.127502,247.142532 
	C157.823090,253.602600 151.491043,260.036011 145.223602,266.531708 
	C140.731995,271.186859 136.511978,276.127533 131.753906,280.485718 
	C130.554352,281.584442 126.902557,281.890045 125.838577,280.934113 
	C120.582527,276.211823 115.897156,270.862396 110.858444,265.888184 
	C104.315254,259.428741 97.547478,253.196136 91.032570,246.709015 
	C86.785446,242.480026 82.898460,237.891235 78.698975,233.611969 
	C74.536362,229.370300 69.779411,225.650391 66.006706,221.101517 
	C59.806602,213.625839 50.327991,208.839340 47.049004,198.087662 
	C58.263176,197.923767 70.944817,201.338669 75.092346,184.352127 
	C77.342094,187.303833 78.742912,188.757492 79.695183,190.461761 
	C82.800720,196.019745 85.742538,201.669205 88.737503,207.827209 
	C84.907158,208.574219 82.389076,208.636856 82.296600,202.952118 
	C82.223122,198.435440 78.765411,193.973816 76.609795,189.027878 
	C70.972748,197.376648 69.745880,204.553131 76.586021,211.649628 
	C77.981781,211.003067 79.545937,210.278503 80.662613,209.761215 
	C82.499428,211.333786 83.983345,212.570374 85.430016,213.849106 
	C89.776215,217.690735 94.244049,221.408203 98.406693,225.440201 
	C102.517906,229.422394 106.324898,233.719620 110.244888,237.897827 
	C111.876305,239.636703 113.471725,241.410309 115.050308,243.197433 
	C115.898773,244.157928 116.553192,245.323456 117.508270,246.150314 
	C121.608032,249.699692 126.761116,252.512894 129.632248,256.850677 
	C131.977982,260.394714 134.170715,262.411957 138.221161,262.523499 
	C137.890472,264.996521 137.613434,267.068420 137.344788,269.077423 
	C144.457642,262.511200 151.229980,256.259338 158.294281,249.856995 
	C159.925766,248.483917 161.234787,247.222626 162.654694,246.101807 
	C162.788452,245.996246 163.619949,246.774582 164.127502,247.142532 
z"/>
<path fill="#D44435" opacity="1.000000" stroke="none" 
	d="
M115.166397,164.991043 
	C114.092003,162.277878 113.017609,159.564728 111.766388,156.285767 
	C111.382790,155.462967 111.134819,155.255112 110.845642,155.096405 
	C110.845642,155.096405 110.390503,155.031128 109.892548,154.772797 
	C103.772255,154.597305 100.161606,150.297562 96.002396,147.689163 
	C91.727104,145.007980 88.809273,140.245514 84.989906,136.727692 
	C81.948326,133.926239 78.506020,131.538422 75.105171,129.162247 
	C74.152153,128.496368 72.716393,128.521393 71.502068,128.229492 
	C71.327484,127.783134 71.152901,127.336777 70.978317,126.890427 
	C72.406090,125.934097 73.744057,124.787933 75.280418,124.061195 
	C78.419685,122.576248 81.665665,121.316872 84.867691,119.964584 
	C89.377258,119.781548 93.922394,119.172783 98.385498,119.545715 
	C102.180771,119.862854 105.881500,121.311508 109.590202,122.801682 
	C109.083458,124.783714 107.812004,126.618782 108.291351,127.587425 
	C109.592026,130.215790 111.345634,132.772797 113.442764,134.823013 
	C118.075897,139.352539 123.296692,143.297089 127.782051,147.957367 
	C132.768021,153.137756 137.175583,158.872345 141.906494,164.303345 
	C142.647049,165.153458 143.746475,165.704529 144.715332,166.339951 
	C150.072906,169.853607 156.760605,172.632614 152.650208,180.611343 
	C155.194702,181.860367 157.383667,182.934875 160.018127,184.228058 
	C160.447968,183.943161 161.466797,183.267899 162.500702,182.582642 
	C164.446838,185.909363 166.225952,188.950607 168.064774,192.307312 
	C168.171646,192.831482 168.218826,193.040192 168.248108,193.246674 
	C168.230225,193.244431 168.205292,193.218521 167.893951,193.211578 
	C167.088470,193.544022 166.594360,193.883423 166.096344,194.178055 
	C166.092453,194.133286 166.182297,194.130432 165.949951,194.228088 
	C165.489761,194.567871 165.261917,194.810013 165.017761,195.026688 
	C165.001450,195.001221 165.050308,195.036957 164.832733,195.150116 
	C164.342606,195.461624 164.147003,195.718536 163.939087,196.256592 
	C163.663757,196.759552 163.407684,196.941223 162.674530,197.015335 
	C160.776138,197.444702 159.284805,197.882919 157.541077,198.094818 
	C156.759338,196.627579 156.230011,195.386658 155.903671,193.918701 
	C154.991699,192.195999 153.876724,190.700317 152.783432,189.114716 
	C152.805115,189.024796 152.790802,189.208389 152.759979,188.890533 
	C152.350967,188.085541 151.972809,187.598389 151.432770,186.988770 
	C151.099884,186.648117 150.992401,186.402191 150.859177,185.802460 
	C149.848328,184.938019 148.926758,184.399612 147.865234,183.567902 
	C145.650208,182.106155 143.395462,179.397766 141.987061,183.957092 
	C141.986893,183.970016 141.969955,183.990891 141.625458,184.073090 
	C134.676346,187.924728 130.746216,182.748566 125.256721,178.616730 
	C125.831978,183.420380 126.278412,187.148285 126.724838,190.876190 
	C126.244583,190.955475 125.764328,191.034760 125.284065,191.114044 
	C123.766312,186.791794 122.475883,182.369766 120.640121,178.187088 
	C119.640640,175.909821 117.715416,174.038834 116.207718,171.984619 
	C116.149345,171.547562 116.090973,171.110504 116.216125,170.065842 
	C115.988571,167.969177 115.577484,166.480103 115.166397,164.991043 
z"/>
<path fill="#C73D2F" opacity="1.000000" stroke="none" 
	d="
M158.002319,250.007446 
	C151.229980,256.259338 144.457642,262.511200 137.344788,269.077423 
	C137.613434,267.068420 137.890472,264.996521 138.221161,262.523499 
	C134.170715,262.411957 131.977982,260.394714 129.632248,256.850677 
	C126.761116,252.512894 121.608032,249.699692 117.508270,246.150314 
	C116.553192,245.323456 115.898773,244.157928 115.050308,243.197433 
	C113.471725,241.410309 111.876305,239.636703 110.244888,237.897827 
	C106.324898,233.719620 102.517906,229.422394 98.406693,225.440201 
	C94.244049,221.408203 89.776215,217.690735 85.430016,213.849106 
	C83.983345,212.570374 82.499428,211.333786 80.662613,209.761215 
	C79.545937,210.278503 77.981781,211.003067 76.586021,211.649628 
	C69.745880,204.553131 70.972748,197.376648 76.609795,189.027878 
	C78.765411,193.973816 82.223122,198.435440 82.296600,202.952118 
	C82.389076,208.636856 84.907158,208.574219 88.887352,208.138367 
	C95.249176,210.053192 95.389153,204.525085 97.877678,200.902405 
	C98.581245,199.630096 98.779297,198.785904 98.977356,197.941711 
	C98.977356,197.941711 99.052864,197.467773 99.428665,197.120636 
	C105.754196,192.513916 105.133202,199.177643 106.994514,201.392670 
	C108.551308,200.732941 109.829544,200.191269 111.756271,199.374771 
	C111.756271,202.794235 111.756271,205.606888 111.756271,208.512619 
	C114.121201,207.921021 115.981369,207.455704 117.841537,206.990372 
	C118.223396,208.059158 118.605263,209.127945 119.004387,210.961700 
	C119.605453,214.141449 120.189270,216.556229 120.773087,218.971024 
	C121.824280,222.179550 122.847023,225.397736 123.933838,228.594147 
	C125.308197,232.636292 125.809616,232.800659 130.409363,230.264313 
	C133.831070,226.521912 136.255341,226.374069 139.107758,230.351959 
	C142.908417,235.652222 147.339233,240.500595 151.857147,245.976746 
	C152.536423,245.586853 154.283234,244.584198 156.270569,243.443481 
	C156.924713,245.922974 157.463516,247.965210 158.002319,250.007446 
M76.369362,204.322571 
	C76.471138,205.309601 76.572922,206.296631 76.674698,207.283646 
	C77.289040,207.062073 77.903381,206.840500 78.517723,206.618942 
	C77.937546,205.708771 77.357361,204.798599 76.369362,204.322571 
z"/>
<path fill="#DD4839" opacity="1.000000" stroke="none" 
	d="
M129.893707,131.967270 
	C129.893707,131.967270 130.017532,131.483780 130.406525,131.217468 
	C131.492706,130.341141 132.189880,129.731140 132.887054,129.121124 
	C132.887054,129.121124 132.885544,128.946030 133.364456,128.951599 
	C135.283524,128.669678 137.108368,128.843048 138.098572,128.016510 
	C142.899048,124.009407 147.748566,122.690125 154.057236,124.768906 
	C159.404709,126.530960 159.635788,125.829674 157.053909,130.178207 
	C162.646515,135.224243 168.336136,140.017670 173.635818,145.209183 
	C185.237442,156.574020 196.570755,168.213135 208.202286,179.546616 
	C209.933792,181.233765 212.688614,181.870682 214.971039,183.378174 
	C215.003784,184.531021 215.035507,185.299149 215.067215,186.067291 
	C215.067215,186.067291 215.062714,185.989868 214.752930,186.129669 
	C212.210037,191.505676 207.808578,192.267410 202.835236,191.966599 
	C200.562317,191.829117 198.278168,191.877716 195.850296,191.528015 
	C191.736801,188.514145 185.061081,188.958313 184.852036,181.867569 
	C184.846298,181.672241 184.361679,181.446167 184.065475,181.310745 
	C172.285645,175.925568 166.255722,164.115036 156.429199,156.405365 
	C150.957565,152.112457 147.027710,145.703186 141.087585,141.435806 
	C137.525925,138.877121 135.286041,133.773254 130.600449,136.872910 
	C130.340195,135.066422 130.116959,133.516846 129.893707,131.967270 
z"/>
<path fill="#E14C3C" opacity="1.000000" stroke="none" 
	d="
M214.970016,182.993454 
	C212.688614,181.870682 209.933792,181.233765 208.202286,179.546616 
	C196.570755,168.213135 185.237442,156.574020 173.635818,145.209183 
	C168.336136,140.017670 162.646515,135.224243 157.053909,130.178207 
	C159.635788,125.829674 159.404709,126.530960 154.057236,124.768906 
	C147.748566,122.690125 142.899048,124.009407 138.098572,128.016510 
	C137.108368,128.843048 135.283524,128.669678 133.450867,128.937500 
	C138.406296,123.788292 145.225449,121.847488 152.144333,120.147713 
	C163.305389,117.405739 174.186615,119.003227 184.599014,123.174660 
	C193.870529,126.889023 201.428772,133.093719 207.105347,141.462708 
	C210.780777,146.881378 214.077682,152.435715 214.982819,159.929718 
	C214.991562,168.182022 214.980789,175.587738 214.970016,182.993454 
z"/>
<path fill="#CD4132" opacity="1.000000" stroke="none" 
	d="
M84.464790,119.998100 
	C81.665665,121.316872 78.419685,122.576248 75.280418,124.061195 
	C73.744057,124.787933 72.406090,125.934097 70.978317,126.890427 
	C71.152901,127.336777 71.327484,127.783134 71.502068,128.229492 
	C72.716393,128.521393 74.152153,128.496368 75.105171,129.162247 
	C78.506020,131.538422 81.948326,133.926239 84.989906,136.727692 
	C88.809273,140.245514 91.727104,145.007980 96.002396,147.689163 
	C100.161606,150.297562 103.772255,154.597305 109.677681,154.691010 
	C104.268364,157.296677 104.998871,163.193527 103.141373,167.663055 
	C102.077904,170.221970 101.496574,172.981247 100.110748,175.828888 
	C99.343338,176.004776 99.163361,176.002090 98.645859,176.035339 
	C97.875801,177.715057 97.443260,179.358841 97.009163,181.254257 
	C97.005371,181.673660 97.003143,181.841415 96.592224,182.006805 
	C88.147881,183.473297 93.793404,175.833740 90.639175,173.578522 
	C87.755074,177.966400 85.809525,176.462433 83.175499,173.076813 
	C80.256035,169.324295 76.159615,166.510971 73.003082,162.913651 
	C68.673203,157.979156 62.183460,154.562805 61.368320,146.984421 
	C61.297222,146.323425 60.104179,145.396393 59.320202,145.265823 
	C55.959831,144.706146 52.557484,144.398453 49.105400,143.744415 
	C48.997887,143.320038 48.955406,143.150146 48.912930,142.980270 
	C56.086319,132.752640 64.830170,124.574867 77.329430,121.367783 
	C79.542191,120.800026 81.816185,120.470924 84.464790,119.998100 
z"/>
<path fill="#D94537" opacity="1.000000" stroke="none" 
	d="
M129.599380,132.084381 
	C130.116959,133.516846 130.340195,135.066422 130.600449,136.872910 
	C135.286041,133.773254 137.525925,138.877121 141.087585,141.435806 
	C147.027710,145.703186 150.957565,152.112457 156.429199,156.405365 
	C166.255722,164.115036 172.285645,175.925568 184.065475,181.310745 
	C184.361679,181.446167 184.846298,181.672241 184.852036,181.867569 
	C185.061081,188.958313 191.736801,188.514145 195.382431,191.560455 
	C187.131607,191.403107 179.202835,190.832489 171.264481,190.475388 
	C170.202896,190.427628 169.092743,191.459793 168.005081,191.991852 
	C166.225952,188.950607 164.446838,185.909363 162.500702,182.582642 
	C161.466797,183.267899 160.447968,183.943161 160.018127,184.228058 
	C157.383667,182.934875 155.194702,181.860367 152.650208,180.611343 
	C156.760605,172.632614 150.072906,169.853607 144.715332,166.339951 
	C143.746475,165.704529 142.647049,165.153458 141.906494,164.303345 
	C137.175583,158.872345 132.768021,153.137756 127.782051,147.957367 
	C123.296692,143.297089 118.075897,139.352539 113.442764,134.823013 
	C111.345634,132.772797 109.592026,130.215790 108.291351,127.587425 
	C107.812004,126.618782 109.083458,124.783714 109.803482,123.120544 
	C115.634331,125.116463 122.093414,125.607620 125.945267,131.267044 
	C126.444695,132.000854 128.155411,131.910233 129.599380,132.084381 
z"/>
<path fill="#CC4233" opacity="1.000000" stroke="none" 
	d="
M158.294281,249.856995 
	C157.463516,247.965210 156.924713,245.922974 156.270569,243.443481 
	C154.283234,244.584198 152.536423,245.586853 151.857147,245.976746 
	C147.339233,240.500595 142.908417,235.652222 139.107758,230.351959 
	C136.255341,226.374069 133.831070,226.521912 130.511597,229.877808 
	C134.576706,216.458618 138.947342,202.911575 143.943390,189.185760 
	C144.990082,189.013855 145.411362,189.020721 145.928482,189.371063 
	C147.696609,192.782288 149.368881,195.850052 151.044708,199.263611 
	C151.747589,200.383667 152.446915,201.157913 153.359283,202.056732 
	C153.813187,202.427933 153.945740,202.723190 154.043365,203.351379 
	C154.554703,203.994858 154.992676,204.354019 155.386307,204.707977 
	C155.341949,204.702774 155.366196,204.616806 155.400635,204.983093 
	C156.963196,205.943359 158.491318,206.537354 159.942444,207.475006 
	C159.906387,209.225494 159.360687,211.292725 160.082077,211.933517 
	C165.333832,216.598526 168.715103,221.849304 166.222672,230.492371 
	C170.440659,226.599518 173.519928,226.374878 175.584076,230.334213 
	C179.224075,228.451370 182.525574,226.743622 185.845917,225.241287 
	C185.864731,225.446716 185.847992,225.858948 185.847992,225.858948 
	C178.844162,232.946121 171.840347,240.033295 164.482010,247.131500 
	C163.619949,246.774582 162.788452,245.996246 162.654694,246.101807 
	C161.234787,247.222626 159.925766,248.483917 158.294281,249.856995 
z"/>
<path fill="#C73E30" opacity="1.000000" stroke="none" 
	d="
M49.170437,143.998917 
	C52.557484,144.398453 55.959831,144.706146 59.320202,145.265823 
	C60.104179,145.396393 61.297222,146.323425 61.368320,146.984421 
	C62.183460,154.562805 68.673203,157.979156 73.003082,162.913651 
	C76.159615,166.510971 80.256035,169.324295 83.175499,173.076813 
	C85.809525,176.462433 87.755074,177.966400 90.639175,173.578522 
	C93.793404,175.833740 88.147881,183.473297 96.592178,182.414948 
	C97.016640,183.914139 97.032455,185.002853 97.048264,186.091553 
	C97.048264,186.091553 96.972641,186.534775 96.624268,186.906036 
	C95.174454,190.230179 94.192482,193.235489 92.927681,196.116638 
	C92.143585,197.902756 90.930199,199.500427 89.909515,201.182678 
	C89.909515,201.182678 89.833641,201.135635 89.882278,200.695801 
	C88.725769,196.529495 87.724838,192.715622 86.190331,189.130142 
	C85.733269,188.062180 83.779839,187.634628 82.512024,186.913666 
	C82.512032,186.913651 82.180618,186.786087 82.275963,186.289963 
	C81.202553,184.602188 80.033798,183.410522 78.865044,182.218857 
	C78.865044,182.218857 78.803024,182.200806 78.714905,181.829224 
	C75.193527,179.641708 65.772301,183.497742 65.452469,187.245361 
	C65.016502,192.353928 63.552792,192.925278 59.876305,189.529602 
	C58.999081,188.719376 57.566502,188.510422 56.118050,187.913040 
	C56.892532,186.337402 57.508133,185.085022 58.175449,183.727417 
	C55.099724,183.406937 52.178806,183.102570 49.542912,182.827911 
	C48.741852,178.557358 48.006107,174.635025 47.270367,170.712677 
	C46.889885,170.738937 46.509407,170.765182 46.128925,170.791443 
	C45.434784,172.325943 44.740643,173.860443 43.952549,175.602631 
	C40.615280,173.695496 40.654533,171.427383 41.947006,168.660583 
	C42.605061,167.251907 42.847519,165.646652 43.256573,164.124527 
	C44.443150,159.709259 45.564484,155.275528 46.821133,150.880417 
	C47.486599,148.552948 48.379959,146.290634 49.170437,143.998917 
z"/>
<path fill="#D44435" opacity="1.000000" stroke="none" 
	d="
M185.827087,225.035858 
	C182.525574,226.743622 179.224075,228.451370 175.584076,230.334213 
	C173.519928,226.374878 170.440659,226.599518 166.222672,230.492371 
	C168.715103,221.849304 165.333832,216.598526 160.082077,211.933517 
	C159.360687,211.292725 159.906387,209.225494 160.311630,207.436829 
	C162.175186,206.040237 163.592545,205.025513 165.103821,203.786774 
	C165.387894,203.283585 165.644272,203.093842 166.345673,202.972458 
	C171.923294,199.840073 177.639847,199.787979 183.448532,199.966629 
	C188.565643,200.124008 193.702774,200.218506 198.809784,199.944427 
	C203.579132,199.688477 205.606079,201.589798 205.027222,206.304092 
	C205.033325,206.582611 204.917603,206.794632 204.112091,207.000092 
	C197.495377,210.302505 192.395493,214.453415 190.006882,221.200027 
	C189.609985,221.745087 189.213089,222.290146 188.313385,223.105103 
	C187.558395,223.931793 187.306198,224.488586 187.054016,225.045380 
	C187.054031,225.045380 187.014343,225.047150 186.727142,225.030090 
	C186.235657,225.020645 186.031372,225.028244 185.827087,225.035858 
z"/>
<path fill="#CA4334" opacity="1.000000" stroke="none" 
	d="
M116.140747,172.382843 
	C117.715416,174.038834 119.640640,175.909821 120.640121,178.187088 
	C122.475883,182.369766 123.766312,186.791794 125.284065,191.114044 
	C125.764328,191.034760 126.244583,190.955475 126.724838,190.876190 
	C126.278412,187.148285 125.831978,183.420380 125.256721,178.616730 
	C130.746216,182.748566 134.676346,187.924728 141.636200,184.401749 
	C141.995438,185.086014 141.999405,185.523834 142.003372,185.961655 
	C140.555756,188.934189 138.751617,191.789322 137.726959,194.901123 
	C134.573669,204.477203 131.718521,214.151459 128.494644,224.607712 
	C124.155151,220.983124 125.663925,216.209274 124.682404,212.287231 
	C123.569244,207.839203 122.397797,203.402878 121.420135,198.924683 
	C120.469749,194.571426 119.777664,190.162430 118.889114,185.794800 
	C118.004379,181.445969 117.016449,177.118134 116.140747,172.382843 
z"/>
<path fill="#3183B8" opacity="1.000000" stroke="none" 
	d="
M282.846954,92.254723 
	C282.846954,92.254723 282.987335,92.500107 282.988647,93.127441 
	C282.985718,109.210167 283.036530,124.665947 282.923676,140.120529 
	C282.904663,142.726562 282.179291,145.327423 281.780334,147.930664 
	C281.780304,147.930664 281.510864,148.051529 281.031921,148.044830 
	C280.332977,148.052597 280.113007,148.067062 279.925446,148.062912 
	C279.957855,148.044312 279.993561,148.109985 279.690033,147.871933 
	C277.572754,147.413071 275.759033,147.192261 273.900269,146.590302 
	C272.290863,145.467743 270.761230,144.637375 269.152618,144.009277 
	C267.464783,143.350266 265.701263,142.885147 263.970825,142.335281 
	C267.276306,142.257187 270.584290,142.063782 273.886536,142.135315 
	C276.846375,142.199448 278.068054,140.989899 278.013184,138.006332 
	C277.770447,124.805527 277.630676,111.602829 276.914795,97.877335 
	C266.255463,97.158524 256.134918,96.963203 246.322113,96.606796 
	C248.881058,95.917320 251.401749,95.676277 251.477798,92.264183 
	C262.243439,92.214470 272.545197,92.234596 282.846954,92.254723 
z"/>
<path fill="#C84234" opacity="1.000000" stroke="none" 
	d="
M117.905518,206.554504 
	C115.981369,207.455704 114.121201,207.921021 111.756271,208.512619 
	C111.756271,205.606888 111.756271,202.794235 111.756271,199.374771 
	C109.829544,200.191269 108.551308,200.732941 106.994514,201.392670 
	C105.133202,199.177643 105.754196,192.513916 99.499664,196.891418 
	C101.937378,186.611496 104.679893,176.213654 107.422409,165.815826 
	C108.195358,165.882401 108.968307,165.948959 109.741257,166.015533 
	C113.910667,179.056396 116.525398,192.453430 117.905518,206.554504 
z"/>
<path fill="#BE3E31" opacity="1.000000" stroke="none" 
	d="
M49.105400,143.744415 
	C48.379959,146.290634 47.486599,148.552948 46.821133,150.880417 
	C45.564484,155.275528 44.443150,159.709259 43.256573,164.124527 
	C42.847519,165.646652 42.605061,167.251907 41.947006,168.660583 
	C40.654533,171.427383 40.615280,173.695496 43.952549,175.602631 
	C44.740643,173.860443 45.434784,172.325943 46.128925,170.791443 
	C46.509407,170.765182 46.889885,170.738937 47.270367,170.712677 
	C48.006107,174.635025 48.741852,178.557358 49.542912,182.827911 
	C52.178806,183.102570 55.099724,183.406937 58.175449,183.727417 
	C57.508133,185.085022 56.892532,186.337402 56.118050,187.913040 
	C57.566502,188.510422 58.999081,188.719376 59.876305,189.529602 
	C63.552792,192.925278 65.016502,192.353928 65.452469,187.245361 
	C65.772301,183.497742 75.193527,179.641708 78.719620,181.797287 
	C74.242165,181.792023 71.681808,184.031982 69.840767,188.145264 
	C68.484444,191.175598 66.431870,193.780151 62.003899,193.201935 
	C57.592674,192.625900 53.013840,192.733032 48.571621,193.175064 
	C44.661514,193.564133 43.063236,191.438354 42.209126,188.468033 
	C39.002239,177.315521 38.817280,166.084274 42.594040,155.051956 
	C43.995987,150.956726 46.365807,147.192825 48.603584,143.129044 
	C48.955406,143.150146 48.997887,143.320038 49.105400,143.744415 
z"/>
<path fill="#3A95D1" opacity="1.000000" stroke="none" 
	d="
M263.508362,142.267136 
	C265.701263,142.885147 267.464783,143.350266 269.152618,144.009277 
	C270.761230,144.637375 272.290863,145.467743 273.437744,146.593170 
	C261.940094,146.991394 250.859451,146.958191 239.780182,147.065186 
	C237.867386,147.083664 235.960342,147.697189 234.044922,148.350647 
	C234.011429,148.873505 233.983688,149.081558 233.955933,149.289597 
	C233.955933,149.289597 234.076126,149.633301 233.755890,150.088318 
	C233.254715,152.011566 233.073761,153.479797 232.723633,155.314697 
	C232.385193,158.845123 232.215927,162.008896 231.657593,165.137650 
	C230.229294,165.030075 229.190063,164.957550 228.136505,164.426270 
	C228.189621,156.740173 228.257065,149.512802 228.324509,142.285431 
	C229.322266,142.249817 230.320007,142.214218 232.040405,142.422684 
	C236.496658,142.547485 240.230286,142.428192 243.963913,142.308899 
	C250.324585,142.272263 256.685242,142.235626 263.508362,142.267136 
z"/>
<path fill="#3891CD" opacity="1.000000" stroke="none" 
	d="
M184.996170,46.899445 
	C184.523590,46.979134 184.051010,47.058823 183.013184,47.559284 
	C182.315567,49.945282 182.083923,51.909645 182.066772,53.875877 
	C181.947174,67.585716 181.872040,81.295929 181.568176,94.767761 
	C179.543762,93.337326 177.733826,92.145172 175.923889,90.953018 
	C175.959778,88.585793 175.995682,86.218575 176.288162,83.048859 
	C176.702698,69.502213 176.860641,56.758068 177.255859,43.807899 
	C178.292252,43.386909 179.091400,43.171940 180.006348,42.875462 
	C180.305466,42.545982 180.296204,42.297920 180.115906,41.865318 
	C180.137482,41.680870 180.187698,41.312874 180.586273,41.263016 
	C182.312958,41.274963 183.641083,41.336769 184.975525,41.790726 
	C184.986618,43.755070 184.991394,45.327259 184.996170,46.899445 
z"/>
<path fill="#3689C0" opacity="1.000000" stroke="none" 
	d="
M251.013916,92.334023 
	C251.401749,95.676277 248.881058,95.917320 245.903107,96.659798 
	C242.812012,97.209877 240.447632,97.545845 238.083267,97.881821 
	C234.932175,97.931084 231.781097,97.980347 228.360291,97.243484 
	C228.103363,84.305626 228.116150,72.153908 228.311371,60.330589 
	C229.724777,62.746994 227.636139,66.647896 231.987488,67.501785 
	C232.002243,70.432526 231.898941,72.904861 232.033447,75.364189 
	C232.316910,80.546417 232.724991,85.721825 233.308472,90.933136 
	C233.535004,90.966248 233.991135,90.925995 233.991135,90.925995 
	C235.377625,91.008446 236.764130,91.090889 238.927292,91.413513 
	C243.473953,91.880470 247.243927,92.107246 251.013916,92.334023 
z"/>
<path fill="#3183B8" opacity="1.000000" stroke="none" 
	d="
M231.977173,67.037476 
	C227.636139,66.647896 229.724777,62.746994 228.274017,59.876381 
	C227.746017,55.437962 227.437759,51.782150 227.129486,48.126339 
	C225.448654,47.771446 223.770081,47.121864 222.086639,47.109055 
	C210.372177,47.019901 198.656723,47.062847 186.836639,46.785416 
	C195.283417,46.333843 203.835037,46.049061 212.386871,46.042011 
	C215.764359,46.039227 217.364944,44.864143 217.450821,41.341026 
	C222.231750,41.301250 226.552353,41.338116 231.002747,41.748154 
	C231.414062,50.426708 231.695618,58.732090 231.977173,67.037476 
z"/>
<path fill="#69ADDC" opacity="1.000000" stroke="none" 
	d="
M140.950516,97.940292 
	C138.305466,98.186371 135.660431,98.432449 132.345230,98.725510 
	C127.240623,95.498405 127.295341,94.843422 132.550598,92.068825 
	C133.510498,92.058586 134.154602,92.051620 135.020966,92.190430 
	C135.892593,92.237495 136.541977,92.138794 137.519943,92.047348 
	C138.505783,92.049026 139.163055,92.043449 139.975739,92.129349 
	C140.465057,92.160957 140.798935,92.101082 141.587097,92.046173 
	C148.432602,92.117317 154.823807,92.183495 161.170319,92.646683 
	C161.051178,94.373550 160.976730,95.703407 160.444000,97.035095 
	C153.640640,97.338043 147.295578,97.639168 140.950516,97.940292 
z"/>
<path fill="#3689C0" opacity="1.000000" stroke="none" 
	d="
M216.990509,41.417667 
	C217.364944,44.864143 215.764359,46.039227 212.386871,46.042011 
	C203.835037,46.049061 195.283417,46.333843 186.374374,46.709808 
	C185.846329,46.953197 185.675644,46.994156 185.250549,46.967278 
	C184.991394,45.327259 184.986618,43.755070 185.442749,41.710426 
	C196.265930,41.297867 206.628220,41.357769 216.990509,41.417667 
z"/>
<path fill="#8EBEE0" opacity="1.000000" stroke="none" 
	d="
M132.234818,92.072098 
	C127.295341,94.843422 127.240623,95.498405 132.003967,98.906738 
	C132.222916,103.029388 132.206833,107.023483 131.964828,111.003838 
	C131.837158,113.103981 131.578217,115.278076 130.853409,117.223099 
	C130.524460,118.105858 128.786392,119.150398 127.927902,118.971046 
	C126.908104,118.757996 125.430656,117.338730 125.388443,116.387299 
	C125.085297,109.554749 124.956894,102.705055 125.113945,95.868637 
	C125.149536,94.319176 126.522415,92.800438 127.967041,91.388496 
	C129.847839,91.696991 131.041321,91.884544 132.234818,92.072098 
z"/>
<path fill="#69ADDC" opacity="1.000000" stroke="none" 
	d="
M228.150848,164.885010 
	C229.190063,164.957550 230.229294,165.030075 231.656052,165.586548 
	C232.036530,174.382736 232.029480,182.695023 231.655273,191.036804 
	C229.853241,191.352692 228.418335,191.639069 226.983444,191.925430 
	C227.005905,184.249649 227.028366,176.573853 227.289307,168.152985 
	C227.735458,166.566940 227.943146,165.725967 228.150848,164.885010 
z"/>
<path fill="#8EBEE0" opacity="1.000000" stroke="none" 
	d="
M226.526733,191.999313 
	C228.418335,191.639069 229.853241,191.352692 231.650787,191.466278 
	C232.008484,193.589645 232.003540,195.313034 231.998123,197.016739 
	C231.997650,196.997040 232.037033,196.995285 231.760468,197.055115 
	C231.009323,197.402954 230.534760,197.690979 229.588470,197.995453 
	C223.558823,198.011887 218.000885,198.011887 212.029877,198.011887 
	C212.029877,196.075409 212.029877,194.655151 212.267822,193.139603 
	C212.676559,193.039749 212.847366,193.035172 213.178116,192.967758 
	C213.546921,192.810745 213.743484,192.695572 213.998123,192.422943 
	C214.068512,192.286484 214.192184,192.005417 214.192184,192.005417 
	C218.151474,192.028000 222.110748,192.050598 226.526733,191.999313 
z"/>
<path fill="#3A95D1" opacity="1.000000" stroke="none" 
	d="
M160.902283,97.033272 
	C160.976730,95.703407 161.051178,94.373550 161.611694,92.627670 
	C166.444626,91.877792 170.791458,91.543915 175.138306,91.210045 
	C175.138306,91.210045 175.522644,91.056046 175.723267,91.004532 
	C177.733826,92.145172 179.543762,93.337326 181.639633,95.074997 
	C181.939621,95.830399 181.953690,96.040291 181.967743,96.250175 
	C178.386124,99.946892 173.848923,97.321724 169.036285,97.793869 
	C165.799789,97.345734 163.351044,97.189507 160.902283,97.033272 
z"/>
<path fill="#CC554A" opacity="1.000000" stroke="none" 
	d="
M205.343445,206.130859 
	C205.606079,201.589798 203.579132,199.688477 198.809784,199.944427 
	C193.702774,200.218506 188.565643,200.124008 183.448532,199.966629 
	C177.639847,199.787979 171.923294,199.840073 166.443237,202.631622 
	C168.947906,200.936798 171.649124,198.634293 174.536499,198.370651 
	C181.560471,197.729324 188.670853,198.034500 196.224152,198.071655 
	C200.757233,198.177048 204.812561,198.169205 209.031357,198.377777 
	C209.512024,198.736481 209.829224,198.878784 210.146439,199.021072 
	C210.146439,199.021072 210.045059,199.048996 209.838486,199.082214 
	C209.554062,199.433563 209.476227,199.751694 209.398376,200.069824 
	C208.152161,202.032425 206.905914,203.995026 205.343445,206.130859 
z"/>
<path fill="#A8C8E5" opacity="1.000000" stroke="none" 
	d="
M210.602493,199.063034 
	C209.829224,198.878784 209.512024,198.736481 208.742432,198.117142 
	C204.121399,197.202393 199.952759,196.764694 195.520538,196.325653 
	C195.083755,196.294540 194.910568,196.264786 194.945511,195.864304 
	C196.805389,195.001678 198.427856,194.299347 200.115372,194.064636 
	C203.020920,193.660522 205.966980,193.547623 209.282898,193.233231 
	C210.456467,193.180923 211.243164,193.207901 212.029877,193.234879 
	C212.029877,194.655151 212.029877,196.075409 212.029877,198.011887 
	C218.000885,198.011887 223.558823,198.011887 229.862671,197.936584 
	C231.084732,197.572617 231.560883,197.283951 232.037033,196.995285 
	C232.037033,196.995285 231.997650,196.997040 232.277145,197.017792 
	C232.742615,197.035278 232.928589,197.032013 233.114578,197.028748 
	C231.988495,197.720963 230.880219,198.975372 229.733322,199.011749 
	C223.513657,199.208939 217.284470,199.105133 210.602493,199.063034 
z"/>
<path fill="#CC554A" opacity="1.000000" stroke="none" 
	d="
M212.267822,193.139603 
	C211.243164,193.207901 210.456467,193.180923 208.831451,193.139557 
	C199.276779,193.167786 190.560410,193.210403 181.394150,193.195190 
	C176.718170,193.174530 172.492096,193.211716 168.266006,193.248901 
	C168.218826,193.040192 168.171646,192.831482 168.064774,192.307312 
	C169.092743,191.459793 170.202896,190.427628 171.264481,190.475388 
	C179.202835,190.832489 187.131607,191.403107 195.531235,191.874390 
	C198.278168,191.877716 200.562317,191.829117 202.835236,191.966599 
	C207.808578,192.267410 212.210037,191.505676 214.776215,186.160889 
	C214.761383,187.783386 214.413467,189.514496 214.128876,191.625504 
	C214.192184,192.005417 214.068512,192.286484 213.803955,192.371826 
	C213.255783,192.548325 213.082031,192.739456 213.018188,193.030579 
	C212.847366,193.035172 212.676559,193.039749 212.267822,193.139603 
z"/>
<path fill="#518BB2" opacity="1.000000" stroke="none" 
	d="
M282.240112,148.020386 
	C282.179291,145.327423 282.904663,142.726562 282.923676,140.120529 
	C283.036530,124.665947 282.985718,109.210167 282.994141,93.268692 
	C283.336761,93.966408 283.964325,95.148827 283.970032,96.334244 
	C284.047150,112.374229 284.067169,128.414764 283.991516,144.454651 
	C283.985748,145.675125 283.149933,146.891708 282.240112,148.020386 
z"/>
<path fill="#A8C8E5" opacity="1.000000" stroke="none" 
	d="
M217.450821,41.341026 
	C206.628220,41.357769 196.265930,41.297867 185.436417,41.318268 
	C183.641083,41.336769 182.312958,41.274963 180.203522,41.176468 
	C178.904388,41.096119 178.386581,41.052452 177.868790,41.008781 
	C178.383987,40.687943 178.899689,40.086033 179.414322,40.086967 
	C196.848648,40.118626 214.282883,40.207558 231.614166,40.741795 
	C231.298462,41.255260 231.085724,41.315121 230.872971,41.374985 
	C226.552353,41.338116 222.231750,41.301250 217.450821,41.341026 
z"/>
<path fill="#518BB2" opacity="1.000000" stroke="none" 
	d="
M231.002747,41.748154 
	C231.085724,41.315121 231.298462,41.255260 231.836761,41.129417 
	C232.162323,41.063438 232.500137,41.041519 232.725647,41.588009 
	C232.994751,58.389675 233.038330,74.644852 233.081909,90.900032 
	C232.724991,85.721825 232.316910,80.546417 232.033447,75.364189 
	C231.898941,72.904861 232.002243,70.432526 231.987488,67.501785 
	C231.695618,58.732090 231.414062,50.426708 231.002747,41.748154 
z"/>
<path fill="#C9E9FB" opacity="1.000000" stroke="none" 
	d="
M233.308456,90.933136 
	C233.038330,74.644852 232.994751,58.389675 232.860016,41.690956 
	C233.178741,42.606979 233.937241,43.964565 233.944977,45.326416 
	C234.029480,60.218548 233.996704,75.111343 233.993469,90.464981 
	C233.991135,90.925995 233.535004,90.966248 233.308456,90.933136 
z"/>
<path fill="#7DABC8" opacity="1.000000" stroke="none" 
	d="
M174.661987,91.121338 
	C170.791458,91.543915 166.444626,91.877792 161.656403,92.230667 
	C154.823807,92.183495 148.432602,92.117317 141.258301,92.040344 
	C140.256897,92.032318 140.038605,92.035095 139.820312,92.037872 
	C139.163055,92.043449 138.505783,92.049026 137.120056,92.036377 
	C135.860611,92.026985 135.329666,92.035820 134.798706,92.044655 
	C134.154602,92.051620 133.510498,92.058586 132.550598,92.068832 
	C131.041321,91.884544 129.847839,91.696991 128.346405,91.334015 
	C143.420868,91.116615 158.803268,91.074631 174.661987,91.121338 
z"/>
<path fill="#A8C8E5" opacity="1.000000" stroke="none" 
	d="
M182.353607,96.011383 
	C181.953690,96.040291 181.939621,95.830399 181.854111,95.313263 
	C181.872040,81.295929 181.947174,67.585716 182.066772,53.875877 
	C182.083923,51.909645 182.315567,49.945282 182.672119,47.674694 
	C182.844025,63.503757 182.791763,79.638176 182.353607,96.011383 
z"/>
<path fill="#7DABC8" opacity="1.000000" stroke="none" 
	d="
M227.074799,48.582047 
	C227.437759,51.782150 227.746017,55.437962 228.091614,59.547981 
	C228.116150,72.153908 228.103363,84.305626 228.065567,96.960602 
	C227.689590,95.763565 227.042496,94.064713 227.034180,92.362732 
	C226.963547,77.921394 227.009293,63.479492 227.074799,48.582047 
z"/>
<path fill="#7DABC8" opacity="1.000000" stroke="none" 
	d="
M233.455750,196.845520 
	C232.928589,197.032013 232.742615,197.035278 232.277618,197.037491 
	C232.003540,195.313034 232.008484,193.589645 232.017929,191.436768 
	C232.029480,182.695023 232.036530,174.382736 232.045135,165.621582 
	C232.215927,162.008896 232.385193,158.845123 232.790710,155.782837 
	C233.001114,166.195984 232.931259,176.507874 232.992249,186.819000 
	C233.002548,188.561874 233.576599,190.301422 233.890198,192.042496 
	C233.859100,193.582428 233.828003,195.122375 233.455750,196.845520 
z"/>
<path fill="#C9E9FB" opacity="1.000000" stroke="none" 
	d="
M234.423553,149.205765 
	C233.983688,149.081558 234.011429,148.873505 234.508301,148.353668 
	C249.982803,148.064606 264.988190,148.087296 279.993561,148.109985 
	C279.993561,148.109985 279.957855,148.044312 279.937195,148.271484 
	C279.916565,148.498672 279.970093,148.913773 279.970093,148.913773 
	C264.943787,148.983154 249.917465,149.052551 234.423553,149.205765 
z"/>
<path fill="#7DABC8" opacity="1.000000" stroke="none" 
	d="
M251.477798,92.264183 
	C247.243927,92.107246 243.473953,91.880470 239.342834,91.456619 
	C253.564743,91.286476 268.147797,91.313400 282.788910,91.797523 
	C272.545197,92.234596 262.243439,92.214470 251.477798,92.264183 
z"/>
<path fill="#CC554A" opacity="1.000000" stroke="none" 
	d="
M190.375656,221.173523 
	C192.395493,214.453415 197.495377,210.302505 203.929230,207.045868 
	C199.791031,211.736801 195.267731,216.441910 190.375656,221.173523 
z"/>
<path fill="#C9E9FB" opacity="1.000000" stroke="none" 
	d="
M233.946960,191.570862 
	C233.576599,190.301422 233.002548,188.561874 232.992249,186.819000 
	C232.931259,176.507874 233.001114,166.195984 232.959885,155.416199 
	C233.073761,153.479797 233.254715,152.011566 233.629028,150.218887 
	C233.882828,163.629379 233.943283,177.364319 233.946960,191.570862 
z"/>
<path fill="#3689C0" opacity="1.000000" stroke="none" 
	d="
M177.018600,44.013920 
	C176.860641,56.758068 176.702698,69.502213 176.357727,82.609818 
	C176.131119,70.307022 176.091537,57.640770 176.323700,44.501789 
	C176.595428,44.029057 177.018600,44.013920 177.018600,44.013920 
z"/>
<path fill="#8EBEE0" opacity="1.000000" stroke="none" 
	d="
M238.540604,97.957901 
	C240.447632,97.545845 242.812012,97.209877 245.595383,96.820892 
	C256.134918,96.963203 266.255463,97.158524 276.697693,97.624649 
	C264.345612,97.941635 251.671768,97.987816 238.540604,97.957901 
z"/>
<path fill="#BE3E31" opacity="1.000000" stroke="none" 
	d="
M82.656052,187.201691 
	C83.779839,187.634628 85.733269,188.062180 86.190331,189.130142 
	C87.724838,192.715622 88.725769,196.529495 89.903130,200.656311 
	C87.516914,196.534363 85.158493,192.012039 82.656052,187.201691 
z"/>
<path fill="#BE3E31" opacity="1.000000" stroke="none" 
	d="
M89.893753,201.555939 
	C90.930199,199.500427 92.143585,197.902756 92.927681,196.116638 
	C94.192482,193.235489 95.174454,190.230179 96.588074,187.127930 
	C95.841759,191.591080 94.927139,196.243973 93.650169,200.795212 
	C93.174538,202.490448 91.956367,204.309616 89.893753,201.555939 
z"/>
<path fill="#CC554A" opacity="1.000000" stroke="none" 
	d="
M214.971039,183.378174 
	C214.980789,175.587738 214.991562,168.182022 215.009735,160.323441 
	C218.614975,168.364243 217.192123,176.999390 215.405212,185.851288 
	C215.035507,185.299149 215.003784,184.531021 214.971039,183.378174 
z"/>
<path fill="#7DABC8" opacity="1.000000" stroke="none" 
	d="
M160.444000,97.035095 
	C163.351044,97.189507 165.799789,97.345734 168.582764,97.696152 
	C159.907776,97.956573 150.898590,98.022820 141.419952,98.014679 
	C147.295578,97.639168 153.640640,97.338043 160.444000,97.035095 
z"/>
<path fill="#8EBEE0" opacity="1.000000" stroke="none" 
	d="
M228.136505,164.426270 
	C227.943146,165.725967 227.735458,166.566940 227.363220,167.687424 
	C227.262787,159.398880 227.326904,150.830795 227.857758,142.274078 
	C228.257065,149.512802 228.189621,156.740173 228.136505,164.426270 
z"/>
<path fill="#CC554A" opacity="1.000000" stroke="none" 
	d="
M145.832626,189.027603 
	C145.411362,189.020721 144.990082,189.013855 144.252319,189.008575 
	C143.929184,188.295670 143.922546,187.581177 143.932358,186.156586 
	C143.961075,184.971695 143.973373,184.496902 144.388397,184.013626 
	C145.862488,183.957153 146.933838,183.909180 148.005188,183.861206 
	C148.926758,184.399612 149.848328,184.938019 150.460571,185.800278 
	C147.936600,185.939102 145.825623,185.908218 145.832626,189.027603 
z"/>
<path fill="#BE3E31" opacity="1.000000" stroke="none" 
	d="
M97.372192,185.901978 
	C97.032455,185.002853 97.016640,183.914139 97.000870,182.417297 
	C97.003143,181.841415 97.005371,181.673660 97.216583,180.990356 
	C97.944832,178.983017 98.464104,177.491211 98.983376,175.999405 
	C99.163361,176.002090 99.343338,176.004776 99.792984,176.019791 
	C99.273804,179.258881 98.484962,182.485641 97.372192,185.901978 
z"/>
<path fill="#C84234" opacity="1.000000" stroke="none" 
	d="
M120.841476,218.566467 
	C120.189270,216.556229 119.605453,214.141449 119.029556,211.308868 
	C119.661598,213.314713 120.285728,215.738312 120.841476,218.566467 
z"/>
<path fill="#3183B8" opacity="1.000000" stroke="none" 
	d="
M243.515503,142.214218 
	C240.230286,142.428192 236.496658,142.547485 232.410385,142.487366 
	C235.727524,142.245163 239.397324,142.182358 243.515503,142.214218 
z"/>
<path fill="#BE3E31" opacity="1.000000" stroke="none" 
	d="
M78.857193,182.545151 
	C80.033798,183.410522 81.202553,184.602188 82.210281,186.125000 
	C80.982613,185.261246 79.915977,184.066345 78.857193,182.545151 
z"/>
<path fill="#CA4334" opacity="1.000000" stroke="none" 
	d="
M115.096794,165.380463 
	C115.577484,166.480103 115.988571,167.969177 116.198708,169.732025 
	C115.674240,168.593857 115.350716,167.181870 115.096794,165.380463 
z"/>
<path fill="#518BB2" opacity="1.000000" stroke="none" 
	d="
M177.255859,43.807899 
	C177.018600,44.013920 176.595428,44.029057 176.383972,44.039780 
	C176.491516,43.035431 176.810516,42.020363 177.499146,41.007042 
	C178.386581,41.052452 178.904388,41.096119 179.804932,41.226326 
	C180.187698,41.312874 180.137482,41.680870 180.061279,42.090904 
	C179.985077,42.500938 179.890533,42.956966 179.890533,42.956966 
	C179.091400,43.171940 178.292252,43.386909 177.255859,43.807899 
z"/>
<path fill="#E14C3C" opacity="1.000000" stroke="none" 
	d="
M132.573120,129.117554 
	C132.189880,129.731140 131.492706,130.341141 130.487061,130.981262 
	C130.872116,130.378922 131.565659,129.746445 132.573120,129.117554 
z"/>
<path fill="#BE3E31" opacity="1.000000" stroke="none" 
	d="
M143.985657,184.022125 
	C143.973373,184.496902 143.961075,184.971695 143.913605,185.799469 
	C143.460358,186.124557 143.042282,186.096649 142.313797,186.015198 
	C141.999405,185.523834 141.995438,185.086014 141.980713,184.319550 
	C141.969955,183.990891 141.986893,183.970016 142.320312,183.972046 
	C143.097717,183.990097 143.541687,184.006119 143.985657,184.022125 
z"/>
<path fill="#C84234" opacity="1.000000" stroke="none" 
	d="
M98.679901,198.116333 
	C98.779297,198.785904 98.581245,199.630096 98.180717,200.733215 
	C98.112984,200.091751 98.247719,199.191345 98.679901,198.116333 
z"/>
<path fill="#CC554A" opacity="1.000000" stroke="none" 
	d="
M187.357880,224.939636 
	C187.306198,224.488586 187.558395,223.931793 188.079102,223.208923 
	C188.119019,223.639877 187.890381,224.236893 187.357880,224.939636 
z"/>
<path fill="#CC554A" opacity="1.000000" stroke="none" 
	d="
M185.845917,225.241287 
	C186.031372,225.028244 186.235657,225.020645 186.745239,225.041107 
	C186.844238,225.372925 186.637955,225.676666 186.139832,225.919678 
	C185.847992,225.858948 185.864731,225.446716 185.845917,225.241287 
z"/>
<path fill="#A8C8E5" opacity="1.000000" stroke="none" 
	d="
M209.600281,199.953796 
	C209.476227,199.751694 209.554062,199.433563 209.883011,199.054688 
	C210.169159,199.332596 210.058533,199.613892 209.600281,199.953796 
z"/>
<path fill="#CD4132" opacity="1.000000" stroke="none" 
	d="
M110.930954,155.338074 
	C111.134819,155.255112 111.382790,155.462967 111.717987,155.924194 
	C111.569710,155.945526 111.292984,155.762650 110.930954,155.338074 
z"/>
<path fill="#518BB2" opacity="1.000000" stroke="none" 
	d="
M280.260864,148.939499 
	C279.970093,148.913773 279.916565,148.498672 279.904785,148.290100 
	C280.113007,148.067062 280.332977,148.052597 280.884613,148.034668 
	C280.994751,148.342560 280.773193,148.653900 280.260864,148.939499 
z"/>
<path fill="#F3E3E5" opacity="1.000000" stroke="none" 
	d="
M145.928482,189.371063 
	C145.825623,185.908218 147.936600,185.939102 150.549835,186.126312 
	C150.992401,186.402191 151.099884,186.648117 151.469162,187.306549 
	C152.041885,188.234009 152.416336,188.721207 152.790802,189.208389 
	C152.790802,189.208389 152.805115,189.024796 152.863815,189.430084 
	C153.848572,191.272141 154.774628,192.708939 155.700668,194.145721 
	C156.230011,195.386658 156.759338,196.627579 157.652527,198.420807 
	C160.965912,201.601181 161.854340,198.872391 163.081589,197.024185 
	C163.407684,196.941223 163.663757,196.759552 164.181274,196.177582 
	C164.691910,195.596313 164.871109,195.316635 165.050308,195.036957 
	C165.050308,195.036957 165.001450,195.001221 165.286957,194.986862 
	C165.775742,194.691818 165.979019,194.411133 166.182297,194.130432 
	C166.182297,194.130432 166.092453,194.133286 166.403961,194.172134 
	C167.212082,193.880157 167.708679,193.549347 168.205292,193.218521 
	C168.205292,193.218521 168.230225,193.244431 168.248108,193.246674 
	C172.492096,193.211716 176.718170,193.174530 181.347534,193.384018 
	C181.750809,193.630707 181.693207,194.015839 181.280518,194.006378 
	C178.267715,194.124329 175.667572,194.251724 173.067444,194.379135 
	C173.083252,194.985275 173.099060,195.591415 173.114883,196.197571 
	C178.356018,196.479782 183.597168,196.761993 189.229095,197.052368 
	C191.325699,196.785355 193.031540,196.510193 194.737381,196.235016 
	C194.910568,196.264786 195.083755,196.294540 195.535736,196.594009 
	C195.791824,197.228622 195.769119,197.593521 195.746429,197.958435 
	C188.670853,198.034500 181.560471,197.729324 174.536499,198.370651 
	C171.649124,198.634293 168.947906,200.936798 166.064438,202.652725 
	C165.644272,203.093842 165.387894,203.283585 164.761566,203.908905 
	C161.338989,204.375626 158.352585,204.496216 155.366196,204.616806 
	C155.366196,204.616806 155.341949,204.702774 155.293121,204.436371 
	C154.819534,203.802338 154.394775,203.434708 153.970001,203.067078 
	C153.945740,202.723190 153.813187,202.427933 153.297028,201.747849 
	C152.361557,200.515533 151.701355,199.716675 151.041153,198.917831 
	C149.368881,195.850052 147.696609,192.782288 145.928482,189.371063 
z"/>
<path fill="#CA4334" opacity="1.000000" stroke="none" 
	d="
M144.388397,184.013641 
	C143.541687,184.006119 143.097717,183.990097 142.320496,183.959122 
	C143.395462,179.397766 145.650208,182.106155 147.865234,183.567902 
	C146.933838,183.909180 145.862488,183.957153 144.388397,184.013641 
z"/>
<path fill="#CC554A" opacity="1.000000" stroke="none" 
	d="
M162.674530,197.015335 
	C161.854340,198.872391 160.965912,201.601181 157.904907,198.647110 
	C159.284805,197.882919 160.776138,197.444702 162.674530,197.015335 
z"/>
<path fill="#CC554A" opacity="1.000000" stroke="none" 
	d="
M155.903671,193.918701 
	C154.774628,192.708939 153.848572,191.272141 152.842133,189.520004 
	C153.876724,190.700317 154.991699,192.195999 155.903671,193.918701 
z"/>
<path fill="#CC554A" opacity="1.000000" stroke="none" 
	d="
M152.759979,188.890533 
	C152.416336,188.721207 152.041885,188.234009 151.631027,187.429047 
	C151.972809,187.598389 152.350967,188.085541 152.759979,188.890533 
z"/>
<path fill="#CC554A" opacity="1.000000" stroke="none" 
	d="
M167.893951,193.211578 
	C167.708679,193.549347 167.212082,193.880157 166.407852,194.216904 
	C166.594360,193.883423 167.088470,193.544022 167.893951,193.211578 
z"/>
<path fill="#CC554A" opacity="1.000000" stroke="none" 
	d="
M164.832733,195.150116 
	C164.871109,195.316635 164.691910,195.596313 164.270508,195.955002 
	C164.147003,195.718536 164.342606,195.461624 164.832733,195.150116 
z"/>
<path fill="#CC554A" opacity="1.000000" stroke="none" 
	d="
M165.949951,194.228088 
	C165.979019,194.411133 165.775742,194.691818 165.303284,195.012329 
	C165.261917,194.810013 165.489761,194.567871 165.949951,194.228088 
z"/>
<path fill="#BF3C2F" opacity="1.000000" stroke="none" 
	d="
M76.573273,204.105499 
	C77.357361,204.798599 77.937546,205.708771 78.517723,206.618942 
	C77.903381,206.840500 77.289040,207.062073 76.674698,207.283646 
	C76.572922,206.296631 76.471138,205.309601 76.573273,204.105499 
z"/>
<path fill="#C73E30" opacity="1.000000" stroke="none" 
	d="
M98.645859,176.035339 
	C98.464104,177.491211 97.944832,178.983017 97.218140,180.738708 
	C97.443260,179.358841 97.875801,177.715057 98.645859,176.035339 
z"/>
<path fill="#CC554A" opacity="1.000000" stroke="none" 
	d="
M155.400635,204.983093 
	C158.352585,204.496216 161.338989,204.375626 164.667648,204.132904 
	C163.592545,205.025513 162.175186,206.040237 160.388626,207.093155 
	C158.491318,206.537354 156.963196,205.943359 155.400635,204.983093 
z"/>
<path fill="#CC554A" opacity="1.000000" stroke="none" 
	d="
M151.044708,199.263611 
	C151.701355,199.716675 152.361557,200.515533 153.084000,201.623260 
	C152.446915,201.157913 151.747589,200.383667 151.044708,199.263611 
z"/>
<path fill="#CC554A" opacity="1.000000" stroke="none" 
	d="
M154.043365,203.351379 
	C154.394775,203.434708 154.819534,203.802338 155.337494,204.441559 
	C154.992676,204.354019 154.554703,203.994858 154.043365,203.351379 
z"/>
<path fill="#518BB2" opacity="1.000000" stroke="none" 
	d="
M279.690033,147.871933 
	C264.988190,148.087296 249.982803,148.064606 234.514038,148.038879 
	C235.960342,147.697189 237.867386,147.083664 239.780182,147.065186 
	C250.859451,146.958191 261.940094,146.991394 273.482788,146.974304 
	C275.759033,147.192261 277.572754,147.413071 279.690033,147.871933 
z"/>
<path fill="#3689C0" opacity="1.000000" stroke="none" 
	d="
M180.006348,42.875462 
	C179.890533,42.956966 179.985077,42.500938 180.039703,42.275352 
	C180.296204,42.297920 180.305466,42.545982 180.006348,42.875462 
z"/>
<path fill="#8EBEE0" opacity="1.000000" stroke="none" 
	d="
M135.020966,92.190430 
	C135.329666,92.035820 135.860611,92.026985 136.791473,92.029129 
	C136.541977,92.138794 135.892593,92.237495 135.020966,92.190430 
z"/>
<path fill="#8EBEE0" opacity="1.000000" stroke="none" 
	d="
M139.975739,92.129349 
	C140.038605,92.035095 140.256897,92.032318 140.804016,92.035378 
	C140.798935,92.101082 140.465057,92.160957 139.975739,92.129349 
z"/>
<path fill="#7DABC8" opacity="1.000000" stroke="none" 
	d="
M231.760468,197.055115 
	C231.560883,197.283951 231.084732,197.572617 230.334381,197.920135 
	C230.534760,197.690979 231.009323,197.402954 231.760468,197.055115 
z"/>
<path fill="#A8C8E5" opacity="1.000000" stroke="none" 
	d="
M213.178116,192.967758 
	C213.082031,192.739456 213.255783,192.548325 213.733582,192.508286 
	C213.743484,192.695572 213.546921,192.810745 213.178116,192.967758 
z"/>
<path fill="#C5C4D7" opacity="1.000000" stroke="none" 
	d="
M196.224152,198.071655 
	C195.769119,197.593521 195.791824,197.228622 195.799316,196.595337 
	C199.952759,196.764694 204.121399,197.202393 208.578979,197.900742 
	C204.812561,198.169205 200.757233,198.177048 196.224152,198.071655 
z"/>
<path fill="#C5C4D7" opacity="1.000000" stroke="none" 
	d="
M181.693207,194.015839 
	C181.693207,194.015839 181.750809,193.630707 181.797424,193.441864 
	C190.560410,193.210403 199.276779,193.167786 208.444580,193.218826 
	C205.966980,193.547623 203.020920,193.660522 200.115372,194.064636 
	C198.427856,194.299347 196.805389,195.001678 194.945511,195.864304 
	C193.031540,196.510193 191.325699,196.785355 189.227539,196.669342 
	C186.454544,195.524048 184.073883,194.769943 181.693207,194.015839 
z"/>
<path fill="#C9E9FB" opacity="1.000000" stroke="none" 
	d="
M181.280518,194.006378 
	C184.073883,194.769943 186.454544,195.524048 188.836761,196.661179 
	C183.597168,196.761993 178.356018,196.479782 173.114883,196.197571 
	C173.099060,195.591415 173.083252,194.985275 173.067444,194.379135 
	C175.667572,194.251724 178.267715,194.124329 181.280518,194.006378 
z"/>
</svg>